G04 #@! TF.GenerationSoftware,KiCad,Pcbnew,(5.1.2)-2*
G04 #@! TF.CreationDate,2019-09-11T21:46:37-05:00*
G04 #@! TF.ProjectId,zturn_breakout,7a747572-6e5f-4627-9265-616b6f75742e,rev?*
G04 #@! TF.SameCoordinates,Original*
G04 #@! TF.FileFunction,Copper,L2,Bot*
G04 #@! TF.FilePolarity,Positive*
%FSLAX46Y46*%
G04 Gerber Fmt 4.6, Leading zero omitted, Abs format (unit mm)*
G04 Created by KiCad (PCBNEW (5.1.2)-2) date 2019-09-11 21:46:37*
%MOMM*%
%LPD*%
G04 APERTURE LIST*
%ADD10O,1.350000X1.350000*%
%ADD11R,1.350000X1.350000*%
%ADD12O,1.700000X1.700000*%
%ADD13R,1.700000X1.700000*%
%ADD14C,0.250000*%
%ADD15C,0.254000*%
G04 APERTURE END LIST*
D10*
X154146000Y-93029000D03*
X152146000Y-93029000D03*
X154146000Y-95029000D03*
X152146000Y-95029000D03*
X154146000Y-97029000D03*
X152146000Y-97029000D03*
X154146000Y-99029000D03*
X152146000Y-99029000D03*
X154146000Y-101029000D03*
X152146000Y-101029000D03*
X154146000Y-103029000D03*
X152146000Y-103029000D03*
X154146000Y-105029000D03*
D11*
X152146000Y-105029000D03*
D12*
X145796000Y-91694000D03*
X148336000Y-91694000D03*
X145796000Y-94234000D03*
X148336000Y-94234000D03*
X145796000Y-96774000D03*
X148336000Y-96774000D03*
X145796000Y-99314000D03*
X148336000Y-99314000D03*
X145796000Y-101854000D03*
X148336000Y-101854000D03*
X145796000Y-104394000D03*
X148336000Y-104394000D03*
X145796000Y-106934000D03*
D13*
X148336000Y-106934000D03*
D14*
X154844000Y-99029000D02*
X154146000Y-99029000D01*
X155702000Y-98171000D02*
X154844000Y-99029000D01*
X155702000Y-92202000D02*
X155702000Y-98171000D01*
X154686000Y-91186000D02*
X155702000Y-92202000D01*
X151765000Y-91186000D02*
X154686000Y-91186000D01*
X145288000Y-99314000D02*
X144145000Y-98171000D01*
X145796000Y-99314000D02*
X145288000Y-99314000D01*
X144145000Y-98171000D02*
X144145000Y-90424000D01*
X144145000Y-90424000D02*
X144653000Y-89916000D01*
X144653000Y-89916000D02*
X150495000Y-89916000D01*
X150495000Y-89916000D02*
X151765000Y-91186000D01*
X155448000Y-102331000D02*
X154146000Y-101029000D01*
X154813000Y-106426000D02*
X155448000Y-105791000D01*
X144145000Y-103505000D02*
X144145000Y-107950000D01*
X155448000Y-105791000D02*
X155448000Y-102331000D01*
X145796000Y-101854000D02*
X144145000Y-103505000D01*
X144145000Y-107950000D02*
X144907000Y-108712000D01*
X144907000Y-108712000D02*
X149860000Y-108712000D01*
X149860000Y-108712000D02*
X152146000Y-106426000D01*
X152146000Y-106426000D02*
X154813000Y-106426000D01*
D15*
G36*
X156019928Y-89212127D02*
G01*
X156081425Y-89230694D01*
X156138146Y-89260854D01*
X156187923Y-89301451D01*
X156228870Y-89350947D01*
X156259422Y-89407452D01*
X156278418Y-89468820D01*
X156286600Y-89546661D01*
X156286601Y-109078106D01*
X156278873Y-109156930D01*
X156260305Y-109218427D01*
X156230148Y-109275144D01*
X156189550Y-109324922D01*
X156140053Y-109365869D01*
X156083548Y-109396422D01*
X156022180Y-109415418D01*
X155944339Y-109423600D01*
X143905884Y-109423600D01*
X143827070Y-109415873D01*
X143765573Y-109397305D01*
X143708856Y-109367148D01*
X143659078Y-109326550D01*
X143618131Y-109277053D01*
X143587578Y-109220548D01*
X143568582Y-109159180D01*
X143560400Y-109081339D01*
X143560400Y-90424000D01*
X143690813Y-90424000D01*
X143693001Y-90446215D01*
X143693000Y-98148795D01*
X143690813Y-98171000D01*
X143699540Y-98259607D01*
X143716966Y-98317051D01*
X143725386Y-98344809D01*
X143767357Y-98423332D01*
X143823841Y-98492159D01*
X143841100Y-98506323D01*
X144616486Y-99281711D01*
X144613306Y-99314000D01*
X144636031Y-99544732D01*
X144703333Y-99766597D01*
X144812626Y-99971070D01*
X144959709Y-100150291D01*
X145138930Y-100297374D01*
X145343403Y-100406667D01*
X145565268Y-100473969D01*
X145738188Y-100491000D01*
X145853812Y-100491000D01*
X146026732Y-100473969D01*
X146248597Y-100406667D01*
X146453070Y-100297374D01*
X146632291Y-100150291D01*
X146779374Y-99971070D01*
X146888667Y-99766597D01*
X146929805Y-99630980D01*
X147146511Y-99630980D01*
X147170866Y-99711288D01*
X147270761Y-99930961D01*
X147411592Y-100126924D01*
X147587948Y-100291647D01*
X147793051Y-100418799D01*
X148019019Y-100503495D01*
X148209000Y-100443187D01*
X148209000Y-99441000D01*
X148463000Y-99441000D01*
X148463000Y-100443187D01*
X148652981Y-100503495D01*
X148878949Y-100418799D01*
X149084052Y-100291647D01*
X149260408Y-100126924D01*
X149401239Y-99930961D01*
X149501134Y-99711288D01*
X149525489Y-99630980D01*
X149464627Y-99441000D01*
X148463000Y-99441000D01*
X148209000Y-99441000D01*
X147207373Y-99441000D01*
X147146511Y-99630980D01*
X146929805Y-99630980D01*
X146955969Y-99544732D01*
X146978257Y-99318432D01*
X151130439Y-99318432D01*
X151140786Y-99352565D01*
X151223225Y-99542455D01*
X151341126Y-99712614D01*
X151489958Y-99856502D01*
X151664001Y-99968589D01*
X151817110Y-100029000D01*
X151664001Y-100089411D01*
X151489958Y-100201498D01*
X151341126Y-100345386D01*
X151223225Y-100515545D01*
X151140786Y-100705435D01*
X151130439Y-100739568D01*
X151193681Y-100902000D01*
X152019000Y-100902000D01*
X152019000Y-100075908D01*
X151897043Y-100029000D01*
X152019000Y-99982092D01*
X152019000Y-99156000D01*
X151193681Y-99156000D01*
X151130439Y-99318432D01*
X146978257Y-99318432D01*
X146978694Y-99314000D01*
X146955969Y-99083268D01*
X146929806Y-98997020D01*
X147146511Y-98997020D01*
X147207373Y-99187000D01*
X148209000Y-99187000D01*
X148209000Y-98184813D01*
X148463000Y-98184813D01*
X148463000Y-99187000D01*
X149464627Y-99187000D01*
X149525489Y-98997020D01*
X149501134Y-98916712D01*
X149401239Y-98697039D01*
X149260408Y-98501076D01*
X149084052Y-98336353D01*
X148878949Y-98209201D01*
X148652981Y-98124505D01*
X148463000Y-98184813D01*
X148209000Y-98184813D01*
X148019019Y-98124505D01*
X147793051Y-98209201D01*
X147587948Y-98336353D01*
X147411592Y-98501076D01*
X147270761Y-98697039D01*
X147170866Y-98916712D01*
X147146511Y-98997020D01*
X146929806Y-98997020D01*
X146888667Y-98861403D01*
X146779374Y-98656930D01*
X146632291Y-98477709D01*
X146453070Y-98330626D01*
X146248597Y-98221333D01*
X146026732Y-98154031D01*
X145853812Y-98137000D01*
X145738188Y-98137000D01*
X145565268Y-98154031D01*
X145343403Y-98221333D01*
X145138930Y-98330626D01*
X145031783Y-98418559D01*
X144597000Y-97983777D01*
X144597000Y-96774000D01*
X144613306Y-96774000D01*
X144636031Y-97004732D01*
X144703333Y-97226597D01*
X144812626Y-97431070D01*
X144959709Y-97610291D01*
X145138930Y-97757374D01*
X145343403Y-97866667D01*
X145565268Y-97933969D01*
X145738188Y-97951000D01*
X145853812Y-97951000D01*
X146026732Y-97933969D01*
X146248597Y-97866667D01*
X146453070Y-97757374D01*
X146632291Y-97610291D01*
X146779374Y-97431070D01*
X146888667Y-97226597D01*
X146929805Y-97090980D01*
X147146511Y-97090980D01*
X147170866Y-97171288D01*
X147270761Y-97390961D01*
X147411592Y-97586924D01*
X147587948Y-97751647D01*
X147793051Y-97878799D01*
X148019019Y-97963495D01*
X148209000Y-97903187D01*
X148209000Y-96901000D01*
X148463000Y-96901000D01*
X148463000Y-97903187D01*
X148652981Y-97963495D01*
X148878949Y-97878799D01*
X149084052Y-97751647D01*
X149260408Y-97586924D01*
X149401239Y-97390961D01*
X149434221Y-97318432D01*
X151130439Y-97318432D01*
X151140786Y-97352565D01*
X151223225Y-97542455D01*
X151341126Y-97712614D01*
X151489958Y-97856502D01*
X151664001Y-97968589D01*
X151817110Y-98029000D01*
X151664001Y-98089411D01*
X151489958Y-98201498D01*
X151341126Y-98345386D01*
X151223225Y-98515545D01*
X151140786Y-98705435D01*
X151130439Y-98739568D01*
X151193681Y-98902000D01*
X152019000Y-98902000D01*
X152019000Y-98075908D01*
X151897043Y-98029000D01*
X152019000Y-97982092D01*
X152019000Y-97156000D01*
X151193681Y-97156000D01*
X151130439Y-97318432D01*
X149434221Y-97318432D01*
X149501134Y-97171288D01*
X149525489Y-97090980D01*
X149464627Y-96901000D01*
X148463000Y-96901000D01*
X148209000Y-96901000D01*
X147207373Y-96901000D01*
X147146511Y-97090980D01*
X146929805Y-97090980D01*
X146955969Y-97004732D01*
X146978694Y-96774000D01*
X146955969Y-96543268D01*
X146929806Y-96457020D01*
X147146511Y-96457020D01*
X147207373Y-96647000D01*
X148209000Y-96647000D01*
X148209000Y-95644813D01*
X148463000Y-95644813D01*
X148463000Y-96647000D01*
X149464627Y-96647000D01*
X149525489Y-96457020D01*
X149501134Y-96376712D01*
X149401239Y-96157039D01*
X149260408Y-95961076D01*
X149084052Y-95796353D01*
X148878949Y-95669201D01*
X148652981Y-95584505D01*
X148463000Y-95644813D01*
X148209000Y-95644813D01*
X148019019Y-95584505D01*
X147793051Y-95669201D01*
X147587948Y-95796353D01*
X147411592Y-95961076D01*
X147270761Y-96157039D01*
X147170866Y-96376712D01*
X147146511Y-96457020D01*
X146929806Y-96457020D01*
X146888667Y-96321403D01*
X146779374Y-96116930D01*
X146632291Y-95937709D01*
X146453070Y-95790626D01*
X146248597Y-95681333D01*
X146026732Y-95614031D01*
X145853812Y-95597000D01*
X145738188Y-95597000D01*
X145565268Y-95614031D01*
X145343403Y-95681333D01*
X145138930Y-95790626D01*
X144959709Y-95937709D01*
X144812626Y-96116930D01*
X144703333Y-96321403D01*
X144636031Y-96543268D01*
X144613306Y-96774000D01*
X144597000Y-96774000D01*
X144597000Y-94234000D01*
X144613306Y-94234000D01*
X144636031Y-94464732D01*
X144703333Y-94686597D01*
X144812626Y-94891070D01*
X144959709Y-95070291D01*
X145138930Y-95217374D01*
X145343403Y-95326667D01*
X145565268Y-95393969D01*
X145738188Y-95411000D01*
X145853812Y-95411000D01*
X146026732Y-95393969D01*
X146248597Y-95326667D01*
X146453070Y-95217374D01*
X146632291Y-95070291D01*
X146779374Y-94891070D01*
X146888667Y-94686597D01*
X146929805Y-94550980D01*
X147146511Y-94550980D01*
X147170866Y-94631288D01*
X147270761Y-94850961D01*
X147411592Y-95046924D01*
X147587948Y-95211647D01*
X147793051Y-95338799D01*
X148019019Y-95423495D01*
X148209000Y-95363187D01*
X148209000Y-94361000D01*
X148463000Y-94361000D01*
X148463000Y-95363187D01*
X148652981Y-95423495D01*
X148878949Y-95338799D01*
X148911802Y-95318432D01*
X151130439Y-95318432D01*
X151140786Y-95352565D01*
X151223225Y-95542455D01*
X151341126Y-95712614D01*
X151489958Y-95856502D01*
X151664001Y-95968589D01*
X151817110Y-96029000D01*
X151664001Y-96089411D01*
X151489958Y-96201498D01*
X151341126Y-96345386D01*
X151223225Y-96515545D01*
X151140786Y-96705435D01*
X151130439Y-96739568D01*
X151193681Y-96902000D01*
X152019000Y-96902000D01*
X152019000Y-96075908D01*
X151897043Y-96029000D01*
X152019000Y-95982092D01*
X152019000Y-95156000D01*
X151193681Y-95156000D01*
X151130439Y-95318432D01*
X148911802Y-95318432D01*
X149084052Y-95211647D01*
X149260408Y-95046924D01*
X149401239Y-94850961D01*
X149501134Y-94631288D01*
X149525489Y-94550980D01*
X149464627Y-94361000D01*
X148463000Y-94361000D01*
X148209000Y-94361000D01*
X147207373Y-94361000D01*
X147146511Y-94550980D01*
X146929805Y-94550980D01*
X146955969Y-94464732D01*
X146978694Y-94234000D01*
X146955969Y-94003268D01*
X146929806Y-93917020D01*
X147146511Y-93917020D01*
X147207373Y-94107000D01*
X148209000Y-94107000D01*
X148209000Y-93104813D01*
X148463000Y-93104813D01*
X148463000Y-94107000D01*
X149464627Y-94107000D01*
X149525489Y-93917020D01*
X149501134Y-93836712D01*
X149401239Y-93617039D01*
X149260408Y-93421076D01*
X149150516Y-93318432D01*
X151130439Y-93318432D01*
X151140786Y-93352565D01*
X151223225Y-93542455D01*
X151341126Y-93712614D01*
X151489958Y-93856502D01*
X151664001Y-93968589D01*
X151817110Y-94029000D01*
X151664001Y-94089411D01*
X151489958Y-94201498D01*
X151341126Y-94345386D01*
X151223225Y-94515545D01*
X151140786Y-94705435D01*
X151130439Y-94739568D01*
X151193681Y-94902000D01*
X152019000Y-94902000D01*
X152019000Y-94075908D01*
X151897043Y-94029000D01*
X152019000Y-93982092D01*
X152019000Y-93156000D01*
X151193681Y-93156000D01*
X151130439Y-93318432D01*
X149150516Y-93318432D01*
X149084052Y-93256353D01*
X148878949Y-93129201D01*
X148652981Y-93044505D01*
X148463000Y-93104813D01*
X148209000Y-93104813D01*
X148019019Y-93044505D01*
X147793051Y-93129201D01*
X147587948Y-93256353D01*
X147411592Y-93421076D01*
X147270761Y-93617039D01*
X147170866Y-93836712D01*
X147146511Y-93917020D01*
X146929806Y-93917020D01*
X146888667Y-93781403D01*
X146779374Y-93576930D01*
X146632291Y-93397709D01*
X146453070Y-93250626D01*
X146248597Y-93141333D01*
X146026732Y-93074031D01*
X145853812Y-93057000D01*
X145738188Y-93057000D01*
X145565268Y-93074031D01*
X145343403Y-93141333D01*
X145138930Y-93250626D01*
X144959709Y-93397709D01*
X144812626Y-93576930D01*
X144703333Y-93781403D01*
X144636031Y-94003268D01*
X144613306Y-94234000D01*
X144597000Y-94234000D01*
X144597000Y-91694000D01*
X144613306Y-91694000D01*
X144636031Y-91924732D01*
X144703333Y-92146597D01*
X144812626Y-92351070D01*
X144959709Y-92530291D01*
X145138930Y-92677374D01*
X145343403Y-92786667D01*
X145565268Y-92853969D01*
X145738188Y-92871000D01*
X145853812Y-92871000D01*
X146026732Y-92853969D01*
X146248597Y-92786667D01*
X146453070Y-92677374D01*
X146632291Y-92530291D01*
X146779374Y-92351070D01*
X146888667Y-92146597D01*
X146929805Y-92010980D01*
X147146511Y-92010980D01*
X147170866Y-92091288D01*
X147270761Y-92310961D01*
X147411592Y-92506924D01*
X147587948Y-92671647D01*
X147793051Y-92798799D01*
X148019019Y-92883495D01*
X148209000Y-92823187D01*
X148209000Y-91821000D01*
X148463000Y-91821000D01*
X148463000Y-92823187D01*
X148652981Y-92883495D01*
X148878949Y-92798799D01*
X148974491Y-92739568D01*
X151130439Y-92739568D01*
X151193681Y-92902000D01*
X152019000Y-92902000D01*
X152019000Y-92075908D01*
X151856567Y-92013432D01*
X151664001Y-92089411D01*
X151489958Y-92201498D01*
X151341126Y-92345386D01*
X151223225Y-92515545D01*
X151140786Y-92705435D01*
X151130439Y-92739568D01*
X148974491Y-92739568D01*
X149084052Y-92671647D01*
X149260408Y-92506924D01*
X149401239Y-92310961D01*
X149501134Y-92091288D01*
X149525489Y-92010980D01*
X149464627Y-91821000D01*
X148463000Y-91821000D01*
X148209000Y-91821000D01*
X147207373Y-91821000D01*
X147146511Y-92010980D01*
X146929805Y-92010980D01*
X146955969Y-91924732D01*
X146978694Y-91694000D01*
X146955969Y-91463268D01*
X146929806Y-91377020D01*
X147146511Y-91377020D01*
X147207373Y-91567000D01*
X148209000Y-91567000D01*
X148209000Y-90564813D01*
X148463000Y-90564813D01*
X148463000Y-91567000D01*
X149464627Y-91567000D01*
X149525489Y-91377020D01*
X149501134Y-91296712D01*
X149401239Y-91077039D01*
X149260408Y-90881076D01*
X149084052Y-90716353D01*
X148878949Y-90589201D01*
X148652981Y-90504505D01*
X148463000Y-90564813D01*
X148209000Y-90564813D01*
X148019019Y-90504505D01*
X147793051Y-90589201D01*
X147587948Y-90716353D01*
X147411592Y-90881076D01*
X147270761Y-91077039D01*
X147170866Y-91296712D01*
X147146511Y-91377020D01*
X146929806Y-91377020D01*
X146888667Y-91241403D01*
X146779374Y-91036930D01*
X146632291Y-90857709D01*
X146453070Y-90710626D01*
X146248597Y-90601333D01*
X146026732Y-90534031D01*
X145853812Y-90517000D01*
X145738188Y-90517000D01*
X145565268Y-90534031D01*
X145343403Y-90601333D01*
X145138930Y-90710626D01*
X144959709Y-90857709D01*
X144812626Y-91036930D01*
X144703333Y-91241403D01*
X144636031Y-91463268D01*
X144613306Y-91694000D01*
X144597000Y-91694000D01*
X144597000Y-90611224D01*
X144840224Y-90368000D01*
X150307777Y-90368000D01*
X151429685Y-91489910D01*
X151443841Y-91507159D01*
X151512667Y-91563643D01*
X151591190Y-91605614D01*
X151656562Y-91625444D01*
X151676392Y-91631460D01*
X151764999Y-91640187D01*
X151787204Y-91638000D01*
X154498777Y-91638000D01*
X155250000Y-92389224D01*
X155250001Y-97983774D01*
X154884443Y-98349333D01*
X154857949Y-98317051D01*
X154705375Y-98191836D01*
X154531304Y-98098794D01*
X154342426Y-98041498D01*
X154215530Y-98029000D01*
X154342426Y-98016502D01*
X154531304Y-97959206D01*
X154705375Y-97866164D01*
X154857949Y-97740949D01*
X154983164Y-97588375D01*
X155076206Y-97414304D01*
X155133502Y-97225426D01*
X155152848Y-97029000D01*
X155133502Y-96832574D01*
X155076206Y-96643696D01*
X154983164Y-96469625D01*
X154857949Y-96317051D01*
X154705375Y-96191836D01*
X154531304Y-96098794D01*
X154342426Y-96041498D01*
X154215530Y-96029000D01*
X154342426Y-96016502D01*
X154531304Y-95959206D01*
X154705375Y-95866164D01*
X154857949Y-95740949D01*
X154983164Y-95588375D01*
X155076206Y-95414304D01*
X155133502Y-95225426D01*
X155152848Y-95029000D01*
X155133502Y-94832574D01*
X155076206Y-94643696D01*
X154983164Y-94469625D01*
X154857949Y-94317051D01*
X154705375Y-94191836D01*
X154531304Y-94098794D01*
X154342426Y-94041498D01*
X154215530Y-94029000D01*
X154342426Y-94016502D01*
X154531304Y-93959206D01*
X154705375Y-93866164D01*
X154857949Y-93740949D01*
X154983164Y-93588375D01*
X155076206Y-93414304D01*
X155133502Y-93225426D01*
X155152848Y-93029000D01*
X155133502Y-92832574D01*
X155076206Y-92643696D01*
X154983164Y-92469625D01*
X154857949Y-92317051D01*
X154705375Y-92191836D01*
X154531304Y-92098794D01*
X154342426Y-92041498D01*
X154195223Y-92027000D01*
X154096777Y-92027000D01*
X153949574Y-92041498D01*
X153760696Y-92098794D01*
X153586625Y-92191836D01*
X153434051Y-92317051D01*
X153308836Y-92469625D01*
X153215794Y-92643696D01*
X153158498Y-92832574D01*
X153151660Y-92901998D01*
X153098320Y-92901998D01*
X153161561Y-92739568D01*
X153151214Y-92705435D01*
X153068775Y-92515545D01*
X152950874Y-92345386D01*
X152802042Y-92201498D01*
X152627999Y-92089411D01*
X152435433Y-92013432D01*
X152273000Y-92075908D01*
X152273000Y-92902000D01*
X152293000Y-92902000D01*
X152293000Y-93156000D01*
X152273000Y-93156000D01*
X152273000Y-93982092D01*
X152394957Y-94029000D01*
X152273000Y-94075908D01*
X152273000Y-94902000D01*
X152293000Y-94902000D01*
X152293000Y-95156000D01*
X152273000Y-95156000D01*
X152273000Y-95982092D01*
X152394957Y-96029000D01*
X152273000Y-96075908D01*
X152273000Y-96902000D01*
X152293000Y-96902000D01*
X152293000Y-97156000D01*
X152273000Y-97156000D01*
X152273000Y-97982092D01*
X152394957Y-98029000D01*
X152273000Y-98075908D01*
X152273000Y-98902000D01*
X152293000Y-98902000D01*
X152293000Y-99156000D01*
X152273000Y-99156000D01*
X152273000Y-99982092D01*
X152394957Y-100029000D01*
X152273000Y-100075908D01*
X152273000Y-100902000D01*
X152293000Y-100902000D01*
X152293000Y-101156000D01*
X152273000Y-101156000D01*
X152273000Y-101982092D01*
X152394957Y-102029000D01*
X152273000Y-102075908D01*
X152273000Y-102902000D01*
X152293000Y-102902000D01*
X152293000Y-103156000D01*
X152273000Y-103156000D01*
X152273000Y-103982092D01*
X152335225Y-104006025D01*
X152273000Y-104068250D01*
X152273000Y-104902000D01*
X152293000Y-104902000D01*
X152293000Y-105156000D01*
X152273000Y-105156000D01*
X152273000Y-105176000D01*
X152019000Y-105176000D01*
X152019000Y-105156000D01*
X151185250Y-105156000D01*
X151090000Y-105251250D01*
X151088157Y-105704000D01*
X151095513Y-105778689D01*
X151117299Y-105850508D01*
X151152678Y-105916696D01*
X151200289Y-105974711D01*
X151258304Y-106022322D01*
X151324492Y-106057701D01*
X151396311Y-106079487D01*
X151471000Y-106086843D01*
X151848645Y-106085306D01*
X151824841Y-106104841D01*
X151810686Y-106122089D01*
X149672777Y-108260000D01*
X145094224Y-108260000D01*
X144597000Y-107762777D01*
X144597000Y-106934000D01*
X144613306Y-106934000D01*
X144636031Y-107164732D01*
X144703333Y-107386597D01*
X144812626Y-107591070D01*
X144959709Y-107770291D01*
X145138930Y-107917374D01*
X145343403Y-108026667D01*
X145565268Y-108093969D01*
X145738188Y-108111000D01*
X145853812Y-108111000D01*
X146026732Y-108093969D01*
X146248597Y-108026667D01*
X146453070Y-107917374D01*
X146615586Y-107784000D01*
X147103157Y-107784000D01*
X147110513Y-107858689D01*
X147132299Y-107930508D01*
X147167678Y-107996696D01*
X147215289Y-108054711D01*
X147273304Y-108102322D01*
X147339492Y-108137701D01*
X147411311Y-108159487D01*
X147486000Y-108166843D01*
X148113750Y-108165000D01*
X148209000Y-108069750D01*
X148209000Y-107061000D01*
X148463000Y-107061000D01*
X148463000Y-108069750D01*
X148558250Y-108165000D01*
X149186000Y-108166843D01*
X149260689Y-108159487D01*
X149332508Y-108137701D01*
X149398696Y-108102322D01*
X149456711Y-108054711D01*
X149504322Y-107996696D01*
X149539701Y-107930508D01*
X149561487Y-107858689D01*
X149568843Y-107784000D01*
X149567000Y-107156250D01*
X149471750Y-107061000D01*
X148463000Y-107061000D01*
X148209000Y-107061000D01*
X147200250Y-107061000D01*
X147105000Y-107156250D01*
X147103157Y-107784000D01*
X146615586Y-107784000D01*
X146632291Y-107770291D01*
X146779374Y-107591070D01*
X146888667Y-107386597D01*
X146955969Y-107164732D01*
X146978694Y-106934000D01*
X146955969Y-106703268D01*
X146888667Y-106481403D01*
X146779374Y-106276930D01*
X146632291Y-106097709D01*
X146615587Y-106084000D01*
X147103157Y-106084000D01*
X147105000Y-106711750D01*
X147200250Y-106807000D01*
X148209000Y-106807000D01*
X148209000Y-105798250D01*
X148463000Y-105798250D01*
X148463000Y-106807000D01*
X149471750Y-106807000D01*
X149567000Y-106711750D01*
X149568843Y-106084000D01*
X149561487Y-106009311D01*
X149539701Y-105937492D01*
X149504322Y-105871304D01*
X149456711Y-105813289D01*
X149398696Y-105765678D01*
X149332508Y-105730299D01*
X149260689Y-105708513D01*
X149186000Y-105701157D01*
X148558250Y-105703000D01*
X148463000Y-105798250D01*
X148209000Y-105798250D01*
X148113750Y-105703000D01*
X147486000Y-105701157D01*
X147411311Y-105708513D01*
X147339492Y-105730299D01*
X147273304Y-105765678D01*
X147215289Y-105813289D01*
X147167678Y-105871304D01*
X147132299Y-105937492D01*
X147110513Y-106009311D01*
X147103157Y-106084000D01*
X146615587Y-106084000D01*
X146453070Y-105950626D01*
X146248597Y-105841333D01*
X146026732Y-105774031D01*
X145853812Y-105757000D01*
X145738188Y-105757000D01*
X145565268Y-105774031D01*
X145343403Y-105841333D01*
X145138930Y-105950626D01*
X144959709Y-106097709D01*
X144812626Y-106276930D01*
X144703333Y-106481403D01*
X144636031Y-106703268D01*
X144613306Y-106934000D01*
X144597000Y-106934000D01*
X144597000Y-104394000D01*
X144613306Y-104394000D01*
X144636031Y-104624732D01*
X144703333Y-104846597D01*
X144812626Y-105051070D01*
X144959709Y-105230291D01*
X145138930Y-105377374D01*
X145343403Y-105486667D01*
X145565268Y-105553969D01*
X145738188Y-105571000D01*
X145853812Y-105571000D01*
X146026732Y-105553969D01*
X146248597Y-105486667D01*
X146453070Y-105377374D01*
X146632291Y-105230291D01*
X146779374Y-105051070D01*
X146888667Y-104846597D01*
X146929805Y-104710980D01*
X147146511Y-104710980D01*
X147170866Y-104791288D01*
X147270761Y-105010961D01*
X147411592Y-105206924D01*
X147587948Y-105371647D01*
X147793051Y-105498799D01*
X148019019Y-105583495D01*
X148209000Y-105523187D01*
X148209000Y-104521000D01*
X148463000Y-104521000D01*
X148463000Y-105523187D01*
X148652981Y-105583495D01*
X148878949Y-105498799D01*
X149084052Y-105371647D01*
X149260408Y-105206924D01*
X149401239Y-105010961D01*
X149501134Y-104791288D01*
X149525489Y-104710980D01*
X149464627Y-104521000D01*
X148463000Y-104521000D01*
X148209000Y-104521000D01*
X147207373Y-104521000D01*
X147146511Y-104710980D01*
X146929805Y-104710980D01*
X146955969Y-104624732D01*
X146978694Y-104394000D01*
X146974755Y-104354000D01*
X151088157Y-104354000D01*
X151090000Y-104806750D01*
X151185250Y-104902000D01*
X152019000Y-104902000D01*
X152019000Y-104068250D01*
X151956775Y-104006025D01*
X152019000Y-103982092D01*
X152019000Y-103156000D01*
X151193681Y-103156000D01*
X151130439Y-103318432D01*
X151140786Y-103352565D01*
X151223225Y-103542455D01*
X151341126Y-103712614D01*
X151489958Y-103856502D01*
X151664001Y-103968589D01*
X151672589Y-103971978D01*
X151471000Y-103971157D01*
X151396311Y-103978513D01*
X151324492Y-104000299D01*
X151258304Y-104035678D01*
X151200289Y-104083289D01*
X151152678Y-104141304D01*
X151117299Y-104207492D01*
X151095513Y-104279311D01*
X151088157Y-104354000D01*
X146974755Y-104354000D01*
X146955969Y-104163268D01*
X146929806Y-104077020D01*
X147146511Y-104077020D01*
X147207373Y-104267000D01*
X148209000Y-104267000D01*
X148209000Y-103264813D01*
X148463000Y-103264813D01*
X148463000Y-104267000D01*
X149464627Y-104267000D01*
X149525489Y-104077020D01*
X149501134Y-103996712D01*
X149401239Y-103777039D01*
X149260408Y-103581076D01*
X149084052Y-103416353D01*
X148878949Y-103289201D01*
X148652981Y-103204505D01*
X148463000Y-103264813D01*
X148209000Y-103264813D01*
X148019019Y-103204505D01*
X147793051Y-103289201D01*
X147587948Y-103416353D01*
X147411592Y-103581076D01*
X147270761Y-103777039D01*
X147170866Y-103996712D01*
X147146511Y-104077020D01*
X146929806Y-104077020D01*
X146888667Y-103941403D01*
X146779374Y-103736930D01*
X146632291Y-103557709D01*
X146453070Y-103410626D01*
X146248597Y-103301333D01*
X146026732Y-103234031D01*
X145853812Y-103217000D01*
X145738188Y-103217000D01*
X145565268Y-103234031D01*
X145343403Y-103301333D01*
X145138930Y-103410626D01*
X144959709Y-103557709D01*
X144812626Y-103736930D01*
X144703333Y-103941403D01*
X144636031Y-104163268D01*
X144613306Y-104394000D01*
X144597000Y-104394000D01*
X144597000Y-103692223D01*
X145342851Y-102946372D01*
X145343403Y-102946667D01*
X145565268Y-103013969D01*
X145738188Y-103031000D01*
X145853812Y-103031000D01*
X146026732Y-103013969D01*
X146248597Y-102946667D01*
X146453070Y-102837374D01*
X146632291Y-102690291D01*
X146779374Y-102511070D01*
X146888667Y-102306597D01*
X146929805Y-102170980D01*
X147146511Y-102170980D01*
X147170866Y-102251288D01*
X147270761Y-102470961D01*
X147411592Y-102666924D01*
X147587948Y-102831647D01*
X147793051Y-102958799D01*
X148019019Y-103043495D01*
X148209000Y-102983187D01*
X148209000Y-101981000D01*
X148463000Y-101981000D01*
X148463000Y-102983187D01*
X148652981Y-103043495D01*
X148878949Y-102958799D01*
X149084052Y-102831647D01*
X149260408Y-102666924D01*
X149401239Y-102470961D01*
X149501134Y-102251288D01*
X149525489Y-102170980D01*
X149464627Y-101981000D01*
X148463000Y-101981000D01*
X148209000Y-101981000D01*
X147207373Y-101981000D01*
X147146511Y-102170980D01*
X146929805Y-102170980D01*
X146955969Y-102084732D01*
X146978694Y-101854000D01*
X146955969Y-101623268D01*
X146929806Y-101537020D01*
X147146511Y-101537020D01*
X147207373Y-101727000D01*
X148209000Y-101727000D01*
X148209000Y-100724813D01*
X148463000Y-100724813D01*
X148463000Y-101727000D01*
X149464627Y-101727000D01*
X149525489Y-101537020D01*
X149501134Y-101456712D01*
X149438252Y-101318432D01*
X151130439Y-101318432D01*
X151140786Y-101352565D01*
X151223225Y-101542455D01*
X151341126Y-101712614D01*
X151489958Y-101856502D01*
X151664001Y-101968589D01*
X151817110Y-102029000D01*
X151664001Y-102089411D01*
X151489958Y-102201498D01*
X151341126Y-102345386D01*
X151223225Y-102515545D01*
X151140786Y-102705435D01*
X151130439Y-102739568D01*
X151193681Y-102902000D01*
X152019000Y-102902000D01*
X152019000Y-102075908D01*
X151897043Y-102029000D01*
X152019000Y-101982092D01*
X152019000Y-101156000D01*
X151193681Y-101156000D01*
X151130439Y-101318432D01*
X149438252Y-101318432D01*
X149401239Y-101237039D01*
X149260408Y-101041076D01*
X149084052Y-100876353D01*
X148878949Y-100749201D01*
X148652981Y-100664505D01*
X148463000Y-100724813D01*
X148209000Y-100724813D01*
X148019019Y-100664505D01*
X147793051Y-100749201D01*
X147587948Y-100876353D01*
X147411592Y-101041076D01*
X147270761Y-101237039D01*
X147170866Y-101456712D01*
X147146511Y-101537020D01*
X146929806Y-101537020D01*
X146888667Y-101401403D01*
X146779374Y-101196930D01*
X146632291Y-101017709D01*
X146453070Y-100870626D01*
X146248597Y-100761333D01*
X146026732Y-100694031D01*
X145853812Y-100677000D01*
X145738188Y-100677000D01*
X145565268Y-100694031D01*
X145343403Y-100761333D01*
X145138930Y-100870626D01*
X144959709Y-101017709D01*
X144812626Y-101196930D01*
X144703333Y-101401403D01*
X144636031Y-101623268D01*
X144613306Y-101854000D01*
X144636031Y-102084732D01*
X144703333Y-102306597D01*
X144703628Y-102307149D01*
X143841100Y-103169677D01*
X143823841Y-103183841D01*
X143767357Y-103252668D01*
X143747830Y-103289201D01*
X143725386Y-103331191D01*
X143699540Y-103416393D01*
X143690813Y-103505000D01*
X143693000Y-103527205D01*
X143693001Y-107927785D01*
X143690813Y-107950000D01*
X143699540Y-108038607D01*
X143725386Y-108123809D01*
X143747403Y-108165000D01*
X143767358Y-108202333D01*
X143823842Y-108271159D01*
X143841096Y-108285319D01*
X144571681Y-109015905D01*
X144585841Y-109033159D01*
X144654667Y-109089643D01*
X144727100Y-109128359D01*
X144733190Y-109131614D01*
X144818392Y-109157460D01*
X144907000Y-109166187D01*
X144929205Y-109164000D01*
X149837795Y-109164000D01*
X149860000Y-109166187D01*
X149882205Y-109164000D01*
X149948607Y-109157460D01*
X150033810Y-109131614D01*
X150112333Y-109089643D01*
X150181159Y-109033159D01*
X150195323Y-109015900D01*
X152333225Y-106878000D01*
X154790795Y-106878000D01*
X154813000Y-106880187D01*
X154835205Y-106878000D01*
X154901607Y-106871460D01*
X154986810Y-106845614D01*
X155065333Y-106803643D01*
X155134159Y-106747159D01*
X155148323Y-106729900D01*
X155751906Y-106126318D01*
X155769159Y-106112159D01*
X155825643Y-106043333D01*
X155867614Y-105964810D01*
X155893460Y-105879607D01*
X155900000Y-105813205D01*
X155900000Y-105813204D01*
X155902187Y-105791000D01*
X155900000Y-105768795D01*
X155900000Y-102353204D01*
X155902187Y-102330999D01*
X155893460Y-102242392D01*
X155867614Y-102157190D01*
X155825643Y-102078667D01*
X155769159Y-102009841D01*
X155751910Y-101995685D01*
X155098159Y-101341935D01*
X155133502Y-101225426D01*
X155152848Y-101029000D01*
X155133502Y-100832574D01*
X155076206Y-100643696D01*
X154983164Y-100469625D01*
X154857949Y-100317051D01*
X154705375Y-100191836D01*
X154531304Y-100098794D01*
X154342426Y-100041498D01*
X154215530Y-100029000D01*
X154342426Y-100016502D01*
X154531304Y-99959206D01*
X154705375Y-99866164D01*
X154857949Y-99740949D01*
X154983164Y-99588375D01*
X155073889Y-99418640D01*
X155096333Y-99406643D01*
X155165159Y-99350159D01*
X155179323Y-99332900D01*
X156005910Y-98506315D01*
X156023159Y-98492159D01*
X156079643Y-98423333D01*
X156121614Y-98344810D01*
X156147460Y-98259607D01*
X156154000Y-98193205D01*
X156154000Y-98193204D01*
X156156187Y-98171001D01*
X156154000Y-98148796D01*
X156154000Y-92224205D01*
X156156187Y-92202000D01*
X156147460Y-92113392D01*
X156121614Y-92028190D01*
X156112415Y-92010980D01*
X156079643Y-91949667D01*
X156023159Y-91880841D01*
X156005906Y-91866682D01*
X155021323Y-90882100D01*
X155007159Y-90864841D01*
X154938333Y-90808357D01*
X154859810Y-90766386D01*
X154774607Y-90740540D01*
X154708205Y-90734000D01*
X154686000Y-90731813D01*
X154663795Y-90734000D01*
X151952225Y-90734000D01*
X150830323Y-89612100D01*
X150816159Y-89594841D01*
X150747333Y-89538357D01*
X150668810Y-89496386D01*
X150583607Y-89470540D01*
X150517205Y-89464000D01*
X150495000Y-89461813D01*
X150472795Y-89464000D01*
X144675202Y-89464000D01*
X144652999Y-89461813D01*
X144630796Y-89464000D01*
X144630795Y-89464000D01*
X144564393Y-89470540D01*
X144479190Y-89496386D01*
X144400667Y-89538357D01*
X144331841Y-89594841D01*
X144317685Y-89612090D01*
X143841095Y-90088682D01*
X143823842Y-90102841D01*
X143770094Y-90168333D01*
X143767358Y-90171667D01*
X143725386Y-90250191D01*
X143699540Y-90335393D01*
X143690813Y-90424000D01*
X143560400Y-90424000D01*
X143560400Y-89549884D01*
X143568127Y-89471072D01*
X143586694Y-89409575D01*
X143616854Y-89352854D01*
X143657451Y-89303077D01*
X143706947Y-89262130D01*
X143763452Y-89231578D01*
X143824820Y-89212582D01*
X143902661Y-89204400D01*
X155941116Y-89204400D01*
X156019928Y-89212127D01*
X156019928Y-89212127D01*
G37*
X156019928Y-89212127D02*
X156081425Y-89230694D01*
X156138146Y-89260854D01*
X156187923Y-89301451D01*
X156228870Y-89350947D01*
X156259422Y-89407452D01*
X156278418Y-89468820D01*
X156286600Y-89546661D01*
X156286601Y-109078106D01*
X156278873Y-109156930D01*
X156260305Y-109218427D01*
X156230148Y-109275144D01*
X156189550Y-109324922D01*
X156140053Y-109365869D01*
X156083548Y-109396422D01*
X156022180Y-109415418D01*
X155944339Y-109423600D01*
X143905884Y-109423600D01*
X143827070Y-109415873D01*
X143765573Y-109397305D01*
X143708856Y-109367148D01*
X143659078Y-109326550D01*
X143618131Y-109277053D01*
X143587578Y-109220548D01*
X143568582Y-109159180D01*
X143560400Y-109081339D01*
X143560400Y-90424000D01*
X143690813Y-90424000D01*
X143693001Y-90446215D01*
X143693000Y-98148795D01*
X143690813Y-98171000D01*
X143699540Y-98259607D01*
X143716966Y-98317051D01*
X143725386Y-98344809D01*
X143767357Y-98423332D01*
X143823841Y-98492159D01*
X143841100Y-98506323D01*
X144616486Y-99281711D01*
X144613306Y-99314000D01*
X144636031Y-99544732D01*
X144703333Y-99766597D01*
X144812626Y-99971070D01*
X144959709Y-100150291D01*
X145138930Y-100297374D01*
X145343403Y-100406667D01*
X145565268Y-100473969D01*
X145738188Y-100491000D01*
X145853812Y-100491000D01*
X146026732Y-100473969D01*
X146248597Y-100406667D01*
X146453070Y-100297374D01*
X146632291Y-100150291D01*
X146779374Y-99971070D01*
X146888667Y-99766597D01*
X146929805Y-99630980D01*
X147146511Y-99630980D01*
X147170866Y-99711288D01*
X147270761Y-99930961D01*
X147411592Y-100126924D01*
X147587948Y-100291647D01*
X147793051Y-100418799D01*
X148019019Y-100503495D01*
X148209000Y-100443187D01*
X148209000Y-99441000D01*
X148463000Y-99441000D01*
X148463000Y-100443187D01*
X148652981Y-100503495D01*
X148878949Y-100418799D01*
X149084052Y-100291647D01*
X149260408Y-100126924D01*
X149401239Y-99930961D01*
X149501134Y-99711288D01*
X149525489Y-99630980D01*
X149464627Y-99441000D01*
X148463000Y-99441000D01*
X148209000Y-99441000D01*
X147207373Y-99441000D01*
X147146511Y-99630980D01*
X146929805Y-99630980D01*
X146955969Y-99544732D01*
X146978257Y-99318432D01*
X151130439Y-99318432D01*
X151140786Y-99352565D01*
X151223225Y-99542455D01*
X151341126Y-99712614D01*
X151489958Y-99856502D01*
X151664001Y-99968589D01*
X151817110Y-100029000D01*
X151664001Y-100089411D01*
X151489958Y-100201498D01*
X151341126Y-100345386D01*
X151223225Y-100515545D01*
X151140786Y-100705435D01*
X151130439Y-100739568D01*
X151193681Y-100902000D01*
X152019000Y-100902000D01*
X152019000Y-100075908D01*
X151897043Y-100029000D01*
X152019000Y-99982092D01*
X152019000Y-99156000D01*
X151193681Y-99156000D01*
X151130439Y-99318432D01*
X146978257Y-99318432D01*
X146978694Y-99314000D01*
X146955969Y-99083268D01*
X146929806Y-98997020D01*
X147146511Y-98997020D01*
X147207373Y-99187000D01*
X148209000Y-99187000D01*
X148209000Y-98184813D01*
X148463000Y-98184813D01*
X148463000Y-99187000D01*
X149464627Y-99187000D01*
X149525489Y-98997020D01*
X149501134Y-98916712D01*
X149401239Y-98697039D01*
X149260408Y-98501076D01*
X149084052Y-98336353D01*
X148878949Y-98209201D01*
X148652981Y-98124505D01*
X148463000Y-98184813D01*
X148209000Y-98184813D01*
X148019019Y-98124505D01*
X147793051Y-98209201D01*
X147587948Y-98336353D01*
X147411592Y-98501076D01*
X147270761Y-98697039D01*
X147170866Y-98916712D01*
X147146511Y-98997020D01*
X146929806Y-98997020D01*
X146888667Y-98861403D01*
X146779374Y-98656930D01*
X146632291Y-98477709D01*
X146453070Y-98330626D01*
X146248597Y-98221333D01*
X146026732Y-98154031D01*
X145853812Y-98137000D01*
X145738188Y-98137000D01*
X145565268Y-98154031D01*
X145343403Y-98221333D01*
X145138930Y-98330626D01*
X145031783Y-98418559D01*
X144597000Y-97983777D01*
X144597000Y-96774000D01*
X144613306Y-96774000D01*
X144636031Y-97004732D01*
X144703333Y-97226597D01*
X144812626Y-97431070D01*
X144959709Y-97610291D01*
X145138930Y-97757374D01*
X145343403Y-97866667D01*
X145565268Y-97933969D01*
X145738188Y-97951000D01*
X145853812Y-97951000D01*
X146026732Y-97933969D01*
X146248597Y-97866667D01*
X146453070Y-97757374D01*
X146632291Y-97610291D01*
X146779374Y-97431070D01*
X146888667Y-97226597D01*
X146929805Y-97090980D01*
X147146511Y-97090980D01*
X147170866Y-97171288D01*
X147270761Y-97390961D01*
X147411592Y-97586924D01*
X147587948Y-97751647D01*
X147793051Y-97878799D01*
X148019019Y-97963495D01*
X148209000Y-97903187D01*
X148209000Y-96901000D01*
X148463000Y-96901000D01*
X148463000Y-97903187D01*
X148652981Y-97963495D01*
X148878949Y-97878799D01*
X149084052Y-97751647D01*
X149260408Y-97586924D01*
X149401239Y-97390961D01*
X149434221Y-97318432D01*
X151130439Y-97318432D01*
X151140786Y-97352565D01*
X151223225Y-97542455D01*
X151341126Y-97712614D01*
X151489958Y-97856502D01*
X151664001Y-97968589D01*
X151817110Y-98029000D01*
X151664001Y-98089411D01*
X151489958Y-98201498D01*
X151341126Y-98345386D01*
X151223225Y-98515545D01*
X151140786Y-98705435D01*
X151130439Y-98739568D01*
X151193681Y-98902000D01*
X152019000Y-98902000D01*
X152019000Y-98075908D01*
X151897043Y-98029000D01*
X152019000Y-97982092D01*
X152019000Y-97156000D01*
X151193681Y-97156000D01*
X151130439Y-97318432D01*
X149434221Y-97318432D01*
X149501134Y-97171288D01*
X149525489Y-97090980D01*
X149464627Y-96901000D01*
X148463000Y-96901000D01*
X148209000Y-96901000D01*
X147207373Y-96901000D01*
X147146511Y-97090980D01*
X146929805Y-97090980D01*
X146955969Y-97004732D01*
X146978694Y-96774000D01*
X146955969Y-96543268D01*
X146929806Y-96457020D01*
X147146511Y-96457020D01*
X147207373Y-96647000D01*
X148209000Y-96647000D01*
X148209000Y-95644813D01*
X148463000Y-95644813D01*
X148463000Y-96647000D01*
X149464627Y-96647000D01*
X149525489Y-96457020D01*
X149501134Y-96376712D01*
X149401239Y-96157039D01*
X149260408Y-95961076D01*
X149084052Y-95796353D01*
X148878949Y-95669201D01*
X148652981Y-95584505D01*
X148463000Y-95644813D01*
X148209000Y-95644813D01*
X148019019Y-95584505D01*
X147793051Y-95669201D01*
X147587948Y-95796353D01*
X147411592Y-95961076D01*
X147270761Y-96157039D01*
X147170866Y-96376712D01*
X147146511Y-96457020D01*
X146929806Y-96457020D01*
X146888667Y-96321403D01*
X146779374Y-96116930D01*
X146632291Y-95937709D01*
X146453070Y-95790626D01*
X146248597Y-95681333D01*
X146026732Y-95614031D01*
X145853812Y-95597000D01*
X145738188Y-95597000D01*
X145565268Y-95614031D01*
X145343403Y-95681333D01*
X145138930Y-95790626D01*
X144959709Y-95937709D01*
X144812626Y-96116930D01*
X144703333Y-96321403D01*
X144636031Y-96543268D01*
X144613306Y-96774000D01*
X144597000Y-96774000D01*
X144597000Y-94234000D01*
X144613306Y-94234000D01*
X144636031Y-94464732D01*
X144703333Y-94686597D01*
X144812626Y-94891070D01*
X144959709Y-95070291D01*
X145138930Y-95217374D01*
X145343403Y-95326667D01*
X145565268Y-95393969D01*
X145738188Y-95411000D01*
X145853812Y-95411000D01*
X146026732Y-95393969D01*
X146248597Y-95326667D01*
X146453070Y-95217374D01*
X146632291Y-95070291D01*
X146779374Y-94891070D01*
X146888667Y-94686597D01*
X146929805Y-94550980D01*
X147146511Y-94550980D01*
X147170866Y-94631288D01*
X147270761Y-94850961D01*
X147411592Y-95046924D01*
X147587948Y-95211647D01*
X147793051Y-95338799D01*
X148019019Y-95423495D01*
X148209000Y-95363187D01*
X148209000Y-94361000D01*
X148463000Y-94361000D01*
X148463000Y-95363187D01*
X148652981Y-95423495D01*
X148878949Y-95338799D01*
X148911802Y-95318432D01*
X151130439Y-95318432D01*
X151140786Y-95352565D01*
X151223225Y-95542455D01*
X151341126Y-95712614D01*
X151489958Y-95856502D01*
X151664001Y-95968589D01*
X151817110Y-96029000D01*
X151664001Y-96089411D01*
X151489958Y-96201498D01*
X151341126Y-96345386D01*
X151223225Y-96515545D01*
X151140786Y-96705435D01*
X151130439Y-96739568D01*
X151193681Y-96902000D01*
X152019000Y-96902000D01*
X152019000Y-96075908D01*
X151897043Y-96029000D01*
X152019000Y-95982092D01*
X152019000Y-95156000D01*
X151193681Y-95156000D01*
X151130439Y-95318432D01*
X148911802Y-95318432D01*
X149084052Y-95211647D01*
X149260408Y-95046924D01*
X149401239Y-94850961D01*
X149501134Y-94631288D01*
X149525489Y-94550980D01*
X149464627Y-94361000D01*
X148463000Y-94361000D01*
X148209000Y-94361000D01*
X147207373Y-94361000D01*
X147146511Y-94550980D01*
X146929805Y-94550980D01*
X146955969Y-94464732D01*
X146978694Y-94234000D01*
X146955969Y-94003268D01*
X146929806Y-93917020D01*
X147146511Y-93917020D01*
X147207373Y-94107000D01*
X148209000Y-94107000D01*
X148209000Y-93104813D01*
X148463000Y-93104813D01*
X148463000Y-94107000D01*
X149464627Y-94107000D01*
X149525489Y-93917020D01*
X149501134Y-93836712D01*
X149401239Y-93617039D01*
X149260408Y-93421076D01*
X149150516Y-93318432D01*
X151130439Y-93318432D01*
X151140786Y-93352565D01*
X151223225Y-93542455D01*
X151341126Y-93712614D01*
X151489958Y-93856502D01*
X151664001Y-93968589D01*
X151817110Y-94029000D01*
X151664001Y-94089411D01*
X151489958Y-94201498D01*
X151341126Y-94345386D01*
X151223225Y-94515545D01*
X151140786Y-94705435D01*
X151130439Y-94739568D01*
X151193681Y-94902000D01*
X152019000Y-94902000D01*
X152019000Y-94075908D01*
X151897043Y-94029000D01*
X152019000Y-93982092D01*
X152019000Y-93156000D01*
X151193681Y-93156000D01*
X151130439Y-93318432D01*
X149150516Y-93318432D01*
X149084052Y-93256353D01*
X148878949Y-93129201D01*
X148652981Y-93044505D01*
X148463000Y-93104813D01*
X148209000Y-93104813D01*
X148019019Y-93044505D01*
X147793051Y-93129201D01*
X147587948Y-93256353D01*
X147411592Y-93421076D01*
X147270761Y-93617039D01*
X147170866Y-93836712D01*
X147146511Y-93917020D01*
X146929806Y-93917020D01*
X146888667Y-93781403D01*
X146779374Y-93576930D01*
X146632291Y-93397709D01*
X146453070Y-93250626D01*
X146248597Y-93141333D01*
X146026732Y-93074031D01*
X145853812Y-93057000D01*
X145738188Y-93057000D01*
X145565268Y-93074031D01*
X145343403Y-93141333D01*
X145138930Y-93250626D01*
X144959709Y-93397709D01*
X144812626Y-93576930D01*
X144703333Y-93781403D01*
X144636031Y-94003268D01*
X144613306Y-94234000D01*
X144597000Y-94234000D01*
X144597000Y-91694000D01*
X144613306Y-91694000D01*
X144636031Y-91924732D01*
X144703333Y-92146597D01*
X144812626Y-92351070D01*
X144959709Y-92530291D01*
X145138930Y-92677374D01*
X145343403Y-92786667D01*
X145565268Y-92853969D01*
X145738188Y-92871000D01*
X145853812Y-92871000D01*
X146026732Y-92853969D01*
X146248597Y-92786667D01*
X146453070Y-92677374D01*
X146632291Y-92530291D01*
X146779374Y-92351070D01*
X146888667Y-92146597D01*
X146929805Y-92010980D01*
X147146511Y-92010980D01*
X147170866Y-92091288D01*
X147270761Y-92310961D01*
X147411592Y-92506924D01*
X147587948Y-92671647D01*
X147793051Y-92798799D01*
X148019019Y-92883495D01*
X148209000Y-92823187D01*
X148209000Y-91821000D01*
X148463000Y-91821000D01*
X148463000Y-92823187D01*
X148652981Y-92883495D01*
X148878949Y-92798799D01*
X148974491Y-92739568D01*
X151130439Y-92739568D01*
X151193681Y-92902000D01*
X152019000Y-92902000D01*
X152019000Y-92075908D01*
X151856567Y-92013432D01*
X151664001Y-92089411D01*
X151489958Y-92201498D01*
X151341126Y-92345386D01*
X151223225Y-92515545D01*
X151140786Y-92705435D01*
X151130439Y-92739568D01*
X148974491Y-92739568D01*
X149084052Y-92671647D01*
X149260408Y-92506924D01*
X149401239Y-92310961D01*
X149501134Y-92091288D01*
X149525489Y-92010980D01*
X149464627Y-91821000D01*
X148463000Y-91821000D01*
X148209000Y-91821000D01*
X147207373Y-91821000D01*
X147146511Y-92010980D01*
X146929805Y-92010980D01*
X146955969Y-91924732D01*
X146978694Y-91694000D01*
X146955969Y-91463268D01*
X146929806Y-91377020D01*
X147146511Y-91377020D01*
X147207373Y-91567000D01*
X148209000Y-91567000D01*
X148209000Y-90564813D01*
X148463000Y-90564813D01*
X148463000Y-91567000D01*
X149464627Y-91567000D01*
X149525489Y-91377020D01*
X149501134Y-91296712D01*
X149401239Y-91077039D01*
X149260408Y-90881076D01*
X149084052Y-90716353D01*
X148878949Y-90589201D01*
X148652981Y-90504505D01*
X148463000Y-90564813D01*
X148209000Y-90564813D01*
X148019019Y-90504505D01*
X147793051Y-90589201D01*
X147587948Y-90716353D01*
X147411592Y-90881076D01*
X147270761Y-91077039D01*
X147170866Y-91296712D01*
X147146511Y-91377020D01*
X146929806Y-91377020D01*
X146888667Y-91241403D01*
X146779374Y-91036930D01*
X146632291Y-90857709D01*
X146453070Y-90710626D01*
X146248597Y-90601333D01*
X146026732Y-90534031D01*
X145853812Y-90517000D01*
X145738188Y-90517000D01*
X145565268Y-90534031D01*
X145343403Y-90601333D01*
X145138930Y-90710626D01*
X144959709Y-90857709D01*
X144812626Y-91036930D01*
X144703333Y-91241403D01*
X144636031Y-91463268D01*
X144613306Y-91694000D01*
X144597000Y-91694000D01*
X144597000Y-90611224D01*
X144840224Y-90368000D01*
X150307777Y-90368000D01*
X151429685Y-91489910D01*
X151443841Y-91507159D01*
X151512667Y-91563643D01*
X151591190Y-91605614D01*
X151656562Y-91625444D01*
X151676392Y-91631460D01*
X151764999Y-91640187D01*
X151787204Y-91638000D01*
X154498777Y-91638000D01*
X155250000Y-92389224D01*
X155250001Y-97983774D01*
X154884443Y-98349333D01*
X154857949Y-98317051D01*
X154705375Y-98191836D01*
X154531304Y-98098794D01*
X154342426Y-98041498D01*
X154215530Y-98029000D01*
X154342426Y-98016502D01*
X154531304Y-97959206D01*
X154705375Y-97866164D01*
X154857949Y-97740949D01*
X154983164Y-97588375D01*
X155076206Y-97414304D01*
X155133502Y-97225426D01*
X155152848Y-97029000D01*
X155133502Y-96832574D01*
X155076206Y-96643696D01*
X154983164Y-96469625D01*
X154857949Y-96317051D01*
X154705375Y-96191836D01*
X154531304Y-96098794D01*
X154342426Y-96041498D01*
X154215530Y-96029000D01*
X154342426Y-96016502D01*
X154531304Y-95959206D01*
X154705375Y-95866164D01*
X154857949Y-95740949D01*
X154983164Y-95588375D01*
X155076206Y-95414304D01*
X155133502Y-95225426D01*
X155152848Y-95029000D01*
X155133502Y-94832574D01*
X155076206Y-94643696D01*
X154983164Y-94469625D01*
X154857949Y-94317051D01*
X154705375Y-94191836D01*
X154531304Y-94098794D01*
X154342426Y-94041498D01*
X154215530Y-94029000D01*
X154342426Y-94016502D01*
X154531304Y-93959206D01*
X154705375Y-93866164D01*
X154857949Y-93740949D01*
X154983164Y-93588375D01*
X155076206Y-93414304D01*
X155133502Y-93225426D01*
X155152848Y-93029000D01*
X155133502Y-92832574D01*
X155076206Y-92643696D01*
X154983164Y-92469625D01*
X154857949Y-92317051D01*
X154705375Y-92191836D01*
X154531304Y-92098794D01*
X154342426Y-92041498D01*
X154195223Y-92027000D01*
X154096777Y-92027000D01*
X153949574Y-92041498D01*
X153760696Y-92098794D01*
X153586625Y-92191836D01*
X153434051Y-92317051D01*
X153308836Y-92469625D01*
X153215794Y-92643696D01*
X153158498Y-92832574D01*
X153151660Y-92901998D01*
X153098320Y-92901998D01*
X153161561Y-92739568D01*
X153151214Y-92705435D01*
X153068775Y-92515545D01*
X152950874Y-92345386D01*
X152802042Y-92201498D01*
X152627999Y-92089411D01*
X152435433Y-92013432D01*
X152273000Y-92075908D01*
X152273000Y-92902000D01*
X152293000Y-92902000D01*
X152293000Y-93156000D01*
X152273000Y-93156000D01*
X152273000Y-93982092D01*
X152394957Y-94029000D01*
X152273000Y-94075908D01*
X152273000Y-94902000D01*
X152293000Y-94902000D01*
X152293000Y-95156000D01*
X152273000Y-95156000D01*
X152273000Y-95982092D01*
X152394957Y-96029000D01*
X152273000Y-96075908D01*
X152273000Y-96902000D01*
X152293000Y-96902000D01*
X152293000Y-97156000D01*
X152273000Y-97156000D01*
X152273000Y-97982092D01*
X152394957Y-98029000D01*
X152273000Y-98075908D01*
X152273000Y-98902000D01*
X152293000Y-98902000D01*
X152293000Y-99156000D01*
X152273000Y-99156000D01*
X152273000Y-99982092D01*
X152394957Y-100029000D01*
X152273000Y-100075908D01*
X152273000Y-100902000D01*
X152293000Y-100902000D01*
X152293000Y-101156000D01*
X152273000Y-101156000D01*
X152273000Y-101982092D01*
X152394957Y-102029000D01*
X152273000Y-102075908D01*
X152273000Y-102902000D01*
X152293000Y-102902000D01*
X152293000Y-103156000D01*
X152273000Y-103156000D01*
X152273000Y-103982092D01*
X152335225Y-104006025D01*
X152273000Y-104068250D01*
X152273000Y-104902000D01*
X152293000Y-104902000D01*
X152293000Y-105156000D01*
X152273000Y-105156000D01*
X152273000Y-105176000D01*
X152019000Y-105176000D01*
X152019000Y-105156000D01*
X151185250Y-105156000D01*
X151090000Y-105251250D01*
X151088157Y-105704000D01*
X151095513Y-105778689D01*
X151117299Y-105850508D01*
X151152678Y-105916696D01*
X151200289Y-105974711D01*
X151258304Y-106022322D01*
X151324492Y-106057701D01*
X151396311Y-106079487D01*
X151471000Y-106086843D01*
X151848645Y-106085306D01*
X151824841Y-106104841D01*
X151810686Y-106122089D01*
X149672777Y-108260000D01*
X145094224Y-108260000D01*
X144597000Y-107762777D01*
X144597000Y-106934000D01*
X144613306Y-106934000D01*
X144636031Y-107164732D01*
X144703333Y-107386597D01*
X144812626Y-107591070D01*
X144959709Y-107770291D01*
X145138930Y-107917374D01*
X145343403Y-108026667D01*
X145565268Y-108093969D01*
X145738188Y-108111000D01*
X145853812Y-108111000D01*
X146026732Y-108093969D01*
X146248597Y-108026667D01*
X146453070Y-107917374D01*
X146615586Y-107784000D01*
X147103157Y-107784000D01*
X147110513Y-107858689D01*
X147132299Y-107930508D01*
X147167678Y-107996696D01*
X147215289Y-108054711D01*
X147273304Y-108102322D01*
X147339492Y-108137701D01*
X147411311Y-108159487D01*
X147486000Y-108166843D01*
X148113750Y-108165000D01*
X148209000Y-108069750D01*
X148209000Y-107061000D01*
X148463000Y-107061000D01*
X148463000Y-108069750D01*
X148558250Y-108165000D01*
X149186000Y-108166843D01*
X149260689Y-108159487D01*
X149332508Y-108137701D01*
X149398696Y-108102322D01*
X149456711Y-108054711D01*
X149504322Y-107996696D01*
X149539701Y-107930508D01*
X149561487Y-107858689D01*
X149568843Y-107784000D01*
X149567000Y-107156250D01*
X149471750Y-107061000D01*
X148463000Y-107061000D01*
X148209000Y-107061000D01*
X147200250Y-107061000D01*
X147105000Y-107156250D01*
X147103157Y-107784000D01*
X146615586Y-107784000D01*
X146632291Y-107770291D01*
X146779374Y-107591070D01*
X146888667Y-107386597D01*
X146955969Y-107164732D01*
X146978694Y-106934000D01*
X146955969Y-106703268D01*
X146888667Y-106481403D01*
X146779374Y-106276930D01*
X146632291Y-106097709D01*
X146615587Y-106084000D01*
X147103157Y-106084000D01*
X147105000Y-106711750D01*
X147200250Y-106807000D01*
X148209000Y-106807000D01*
X148209000Y-105798250D01*
X148463000Y-105798250D01*
X148463000Y-106807000D01*
X149471750Y-106807000D01*
X149567000Y-106711750D01*
X149568843Y-106084000D01*
X149561487Y-106009311D01*
X149539701Y-105937492D01*
X149504322Y-105871304D01*
X149456711Y-105813289D01*
X149398696Y-105765678D01*
X149332508Y-105730299D01*
X149260689Y-105708513D01*
X149186000Y-105701157D01*
X148558250Y-105703000D01*
X148463000Y-105798250D01*
X148209000Y-105798250D01*
X148113750Y-105703000D01*
X147486000Y-105701157D01*
X147411311Y-105708513D01*
X147339492Y-105730299D01*
X147273304Y-105765678D01*
X147215289Y-105813289D01*
X147167678Y-105871304D01*
X147132299Y-105937492D01*
X147110513Y-106009311D01*
X147103157Y-106084000D01*
X146615587Y-106084000D01*
X146453070Y-105950626D01*
X146248597Y-105841333D01*
X146026732Y-105774031D01*
X145853812Y-105757000D01*
X145738188Y-105757000D01*
X145565268Y-105774031D01*
X145343403Y-105841333D01*
X145138930Y-105950626D01*
X144959709Y-106097709D01*
X144812626Y-106276930D01*
X144703333Y-106481403D01*
X144636031Y-106703268D01*
X144613306Y-106934000D01*
X144597000Y-106934000D01*
X144597000Y-104394000D01*
X144613306Y-104394000D01*
X144636031Y-104624732D01*
X144703333Y-104846597D01*
X144812626Y-105051070D01*
X144959709Y-105230291D01*
X145138930Y-105377374D01*
X145343403Y-105486667D01*
X145565268Y-105553969D01*
X145738188Y-105571000D01*
X145853812Y-105571000D01*
X146026732Y-105553969D01*
X146248597Y-105486667D01*
X146453070Y-105377374D01*
X146632291Y-105230291D01*
X146779374Y-105051070D01*
X146888667Y-104846597D01*
X146929805Y-104710980D01*
X147146511Y-104710980D01*
X147170866Y-104791288D01*
X147270761Y-105010961D01*
X147411592Y-105206924D01*
X147587948Y-105371647D01*
X147793051Y-105498799D01*
X148019019Y-105583495D01*
X148209000Y-105523187D01*
X148209000Y-104521000D01*
X148463000Y-104521000D01*
X148463000Y-105523187D01*
X148652981Y-105583495D01*
X148878949Y-105498799D01*
X149084052Y-105371647D01*
X149260408Y-105206924D01*
X149401239Y-105010961D01*
X149501134Y-104791288D01*
X149525489Y-104710980D01*
X149464627Y-104521000D01*
X148463000Y-104521000D01*
X148209000Y-104521000D01*
X147207373Y-104521000D01*
X147146511Y-104710980D01*
X146929805Y-104710980D01*
X146955969Y-104624732D01*
X146978694Y-104394000D01*
X146974755Y-104354000D01*
X151088157Y-104354000D01*
X151090000Y-104806750D01*
X151185250Y-104902000D01*
X152019000Y-104902000D01*
X152019000Y-104068250D01*
X151956775Y-104006025D01*
X152019000Y-103982092D01*
X152019000Y-103156000D01*
X151193681Y-103156000D01*
X151130439Y-103318432D01*
X151140786Y-103352565D01*
X151223225Y-103542455D01*
X151341126Y-103712614D01*
X151489958Y-103856502D01*
X151664001Y-103968589D01*
X151672589Y-103971978D01*
X151471000Y-103971157D01*
X151396311Y-103978513D01*
X151324492Y-104000299D01*
X151258304Y-104035678D01*
X151200289Y-104083289D01*
X151152678Y-104141304D01*
X151117299Y-104207492D01*
X151095513Y-104279311D01*
X151088157Y-104354000D01*
X146974755Y-104354000D01*
X146955969Y-104163268D01*
X146929806Y-104077020D01*
X147146511Y-104077020D01*
X147207373Y-104267000D01*
X148209000Y-104267000D01*
X148209000Y-103264813D01*
X148463000Y-103264813D01*
X148463000Y-104267000D01*
X149464627Y-104267000D01*
X149525489Y-104077020D01*
X149501134Y-103996712D01*
X149401239Y-103777039D01*
X149260408Y-103581076D01*
X149084052Y-103416353D01*
X148878949Y-103289201D01*
X148652981Y-103204505D01*
X148463000Y-103264813D01*
X148209000Y-103264813D01*
X148019019Y-103204505D01*
X147793051Y-103289201D01*
X147587948Y-103416353D01*
X147411592Y-103581076D01*
X147270761Y-103777039D01*
X147170866Y-103996712D01*
X147146511Y-104077020D01*
X146929806Y-104077020D01*
X146888667Y-103941403D01*
X146779374Y-103736930D01*
X146632291Y-103557709D01*
X146453070Y-103410626D01*
X146248597Y-103301333D01*
X146026732Y-103234031D01*
X145853812Y-103217000D01*
X145738188Y-103217000D01*
X145565268Y-103234031D01*
X145343403Y-103301333D01*
X145138930Y-103410626D01*
X144959709Y-103557709D01*
X144812626Y-103736930D01*
X144703333Y-103941403D01*
X144636031Y-104163268D01*
X144613306Y-104394000D01*
X144597000Y-104394000D01*
X144597000Y-103692223D01*
X145342851Y-102946372D01*
X145343403Y-102946667D01*
X145565268Y-103013969D01*
X145738188Y-103031000D01*
X145853812Y-103031000D01*
X146026732Y-103013969D01*
X146248597Y-102946667D01*
X146453070Y-102837374D01*
X146632291Y-102690291D01*
X146779374Y-102511070D01*
X146888667Y-102306597D01*
X146929805Y-102170980D01*
X147146511Y-102170980D01*
X147170866Y-102251288D01*
X147270761Y-102470961D01*
X147411592Y-102666924D01*
X147587948Y-102831647D01*
X147793051Y-102958799D01*
X148019019Y-103043495D01*
X148209000Y-102983187D01*
X148209000Y-101981000D01*
X148463000Y-101981000D01*
X148463000Y-102983187D01*
X148652981Y-103043495D01*
X148878949Y-102958799D01*
X149084052Y-102831647D01*
X149260408Y-102666924D01*
X149401239Y-102470961D01*
X149501134Y-102251288D01*
X149525489Y-102170980D01*
X149464627Y-101981000D01*
X148463000Y-101981000D01*
X148209000Y-101981000D01*
X147207373Y-101981000D01*
X147146511Y-102170980D01*
X146929805Y-102170980D01*
X146955969Y-102084732D01*
X146978694Y-101854000D01*
X146955969Y-101623268D01*
X146929806Y-101537020D01*
X147146511Y-101537020D01*
X147207373Y-101727000D01*
X148209000Y-101727000D01*
X148209000Y-100724813D01*
X148463000Y-100724813D01*
X148463000Y-101727000D01*
X149464627Y-101727000D01*
X149525489Y-101537020D01*
X149501134Y-101456712D01*
X149438252Y-101318432D01*
X151130439Y-101318432D01*
X151140786Y-101352565D01*
X151223225Y-101542455D01*
X151341126Y-101712614D01*
X151489958Y-101856502D01*
X151664001Y-101968589D01*
X151817110Y-102029000D01*
X151664001Y-102089411D01*
X151489958Y-102201498D01*
X151341126Y-102345386D01*
X151223225Y-102515545D01*
X151140786Y-102705435D01*
X151130439Y-102739568D01*
X151193681Y-102902000D01*
X152019000Y-102902000D01*
X152019000Y-102075908D01*
X151897043Y-102029000D01*
X152019000Y-101982092D01*
X152019000Y-101156000D01*
X151193681Y-101156000D01*
X151130439Y-101318432D01*
X149438252Y-101318432D01*
X149401239Y-101237039D01*
X149260408Y-101041076D01*
X149084052Y-100876353D01*
X148878949Y-100749201D01*
X148652981Y-100664505D01*
X148463000Y-100724813D01*
X148209000Y-100724813D01*
X148019019Y-100664505D01*
X147793051Y-100749201D01*
X147587948Y-100876353D01*
X147411592Y-101041076D01*
X147270761Y-101237039D01*
X147170866Y-101456712D01*
X147146511Y-101537020D01*
X146929806Y-101537020D01*
X146888667Y-101401403D01*
X146779374Y-101196930D01*
X146632291Y-101017709D01*
X146453070Y-100870626D01*
X146248597Y-100761333D01*
X146026732Y-100694031D01*
X145853812Y-100677000D01*
X145738188Y-100677000D01*
X145565268Y-100694031D01*
X145343403Y-100761333D01*
X145138930Y-100870626D01*
X144959709Y-101017709D01*
X144812626Y-101196930D01*
X144703333Y-101401403D01*
X144636031Y-101623268D01*
X144613306Y-101854000D01*
X144636031Y-102084732D01*
X144703333Y-102306597D01*
X144703628Y-102307149D01*
X143841100Y-103169677D01*
X143823841Y-103183841D01*
X143767357Y-103252668D01*
X143747830Y-103289201D01*
X143725386Y-103331191D01*
X143699540Y-103416393D01*
X143690813Y-103505000D01*
X143693000Y-103527205D01*
X143693001Y-107927785D01*
X143690813Y-107950000D01*
X143699540Y-108038607D01*
X143725386Y-108123809D01*
X143747403Y-108165000D01*
X143767358Y-108202333D01*
X143823842Y-108271159D01*
X143841096Y-108285319D01*
X144571681Y-109015905D01*
X144585841Y-109033159D01*
X144654667Y-109089643D01*
X144727100Y-109128359D01*
X144733190Y-109131614D01*
X144818392Y-109157460D01*
X144907000Y-109166187D01*
X144929205Y-109164000D01*
X149837795Y-109164000D01*
X149860000Y-109166187D01*
X149882205Y-109164000D01*
X149948607Y-109157460D01*
X150033810Y-109131614D01*
X150112333Y-109089643D01*
X150181159Y-109033159D01*
X150195323Y-109015900D01*
X152333225Y-106878000D01*
X154790795Y-106878000D01*
X154813000Y-106880187D01*
X154835205Y-106878000D01*
X154901607Y-106871460D01*
X154986810Y-106845614D01*
X155065333Y-106803643D01*
X155134159Y-106747159D01*
X155148323Y-106729900D01*
X155751906Y-106126318D01*
X155769159Y-106112159D01*
X155825643Y-106043333D01*
X155867614Y-105964810D01*
X155893460Y-105879607D01*
X155900000Y-105813205D01*
X155900000Y-105813204D01*
X155902187Y-105791000D01*
X155900000Y-105768795D01*
X155900000Y-102353204D01*
X155902187Y-102330999D01*
X155893460Y-102242392D01*
X155867614Y-102157190D01*
X155825643Y-102078667D01*
X155769159Y-102009841D01*
X155751910Y-101995685D01*
X155098159Y-101341935D01*
X155133502Y-101225426D01*
X155152848Y-101029000D01*
X155133502Y-100832574D01*
X155076206Y-100643696D01*
X154983164Y-100469625D01*
X154857949Y-100317051D01*
X154705375Y-100191836D01*
X154531304Y-100098794D01*
X154342426Y-100041498D01*
X154215530Y-100029000D01*
X154342426Y-100016502D01*
X154531304Y-99959206D01*
X154705375Y-99866164D01*
X154857949Y-99740949D01*
X154983164Y-99588375D01*
X155073889Y-99418640D01*
X155096333Y-99406643D01*
X155165159Y-99350159D01*
X155179323Y-99332900D01*
X156005910Y-98506315D01*
X156023159Y-98492159D01*
X156079643Y-98423333D01*
X156121614Y-98344810D01*
X156147460Y-98259607D01*
X156154000Y-98193205D01*
X156154000Y-98193204D01*
X156156187Y-98171001D01*
X156154000Y-98148796D01*
X156154000Y-92224205D01*
X156156187Y-92202000D01*
X156147460Y-92113392D01*
X156121614Y-92028190D01*
X156112415Y-92010980D01*
X156079643Y-91949667D01*
X156023159Y-91880841D01*
X156005906Y-91866682D01*
X155021323Y-90882100D01*
X155007159Y-90864841D01*
X154938333Y-90808357D01*
X154859810Y-90766386D01*
X154774607Y-90740540D01*
X154708205Y-90734000D01*
X154686000Y-90731813D01*
X154663795Y-90734000D01*
X151952225Y-90734000D01*
X150830323Y-89612100D01*
X150816159Y-89594841D01*
X150747333Y-89538357D01*
X150668810Y-89496386D01*
X150583607Y-89470540D01*
X150517205Y-89464000D01*
X150495000Y-89461813D01*
X150472795Y-89464000D01*
X144675202Y-89464000D01*
X144652999Y-89461813D01*
X144630796Y-89464000D01*
X144630795Y-89464000D01*
X144564393Y-89470540D01*
X144479190Y-89496386D01*
X144400667Y-89538357D01*
X144331841Y-89594841D01*
X144317685Y-89612090D01*
X143841095Y-90088682D01*
X143823842Y-90102841D01*
X143770094Y-90168333D01*
X143767358Y-90171667D01*
X143725386Y-90250191D01*
X143699540Y-90335393D01*
X143690813Y-90424000D01*
X143560400Y-90424000D01*
X143560400Y-89549884D01*
X143568127Y-89471072D01*
X143586694Y-89409575D01*
X143616854Y-89352854D01*
X143657451Y-89303077D01*
X143706947Y-89262130D01*
X143763452Y-89231578D01*
X143824820Y-89212582D01*
X143902661Y-89204400D01*
X155941116Y-89204400D01*
X156019928Y-89212127D01*
M02*
