G04 #@! TF.GenerationSoftware,KiCad,Pcbnew,(5.1.2)-2*
G04 #@! TF.CreationDate,2019-09-11T21:46:37-05:00*
G04 #@! TF.ProjectId,zturn_breakout,7a747572-6e5f-4627-9265-616b6f75742e,rev?*
G04 #@! TF.SameCoordinates,Original*
G04 #@! TF.FileFunction,Soldermask,Bot*
G04 #@! TF.FilePolarity,Negative*
%FSLAX46Y46*%
G04 Gerber Fmt 4.6, Leading zero omitted, Abs format (unit mm)*
G04 Created by KiCad (PCBNEW (5.1.2)-2) date 2019-09-11 21:46:37*
%MOMM*%
%LPD*%
G04 APERTURE LIST*
%ADD10C,0.100000*%
G04 APERTURE END LIST*
D10*
G36*
X149237000Y-107835000D02*
G01*
X147435000Y-107835000D01*
X147435000Y-106033000D01*
X149237000Y-106033000D01*
X149237000Y-107835000D01*
X149237000Y-107835000D01*
G37*
G36*
X145906443Y-106039519D02*
G01*
X145972627Y-106046037D01*
X146142466Y-106097557D01*
X146298991Y-106181222D01*
X146334729Y-106210552D01*
X146436186Y-106293814D01*
X146519448Y-106395271D01*
X146548778Y-106431009D01*
X146632443Y-106587534D01*
X146683963Y-106757373D01*
X146701359Y-106934000D01*
X146683963Y-107110627D01*
X146632443Y-107280466D01*
X146548778Y-107436991D01*
X146519448Y-107472729D01*
X146436186Y-107574186D01*
X146334729Y-107657448D01*
X146298991Y-107686778D01*
X146142466Y-107770443D01*
X145972627Y-107821963D01*
X145906443Y-107828481D01*
X145840260Y-107835000D01*
X145751740Y-107835000D01*
X145685557Y-107828481D01*
X145619373Y-107821963D01*
X145449534Y-107770443D01*
X145293009Y-107686778D01*
X145257271Y-107657448D01*
X145155814Y-107574186D01*
X145072552Y-107472729D01*
X145043222Y-107436991D01*
X144959557Y-107280466D01*
X144908037Y-107110627D01*
X144890641Y-106934000D01*
X144908037Y-106757373D01*
X144959557Y-106587534D01*
X145043222Y-106431009D01*
X145072552Y-106395271D01*
X145155814Y-106293814D01*
X145257271Y-106210552D01*
X145293009Y-106181222D01*
X145449534Y-106097557D01*
X145619373Y-106046037D01*
X145685557Y-106039519D01*
X145751740Y-106033000D01*
X145840260Y-106033000D01*
X145906443Y-106039519D01*
X145906443Y-106039519D01*
G37*
G36*
X152872000Y-105755000D02*
G01*
X151420000Y-105755000D01*
X151420000Y-104303000D01*
X152872000Y-104303000D01*
X152872000Y-105755000D01*
X152872000Y-105755000D01*
G37*
G36*
X154217213Y-104306502D02*
G01*
X154288321Y-104313505D01*
X154425172Y-104355019D01*
X154425175Y-104355020D01*
X154551294Y-104422432D01*
X154661843Y-104513157D01*
X154752568Y-104623706D01*
X154819980Y-104749825D01*
X154819981Y-104749828D01*
X154861495Y-104886679D01*
X154875512Y-105029000D01*
X154861495Y-105171321D01*
X154823977Y-105295000D01*
X154819980Y-105308175D01*
X154752568Y-105434294D01*
X154661843Y-105544843D01*
X154551294Y-105635568D01*
X154425175Y-105702980D01*
X154425172Y-105702981D01*
X154288321Y-105744495D01*
X154217213Y-105751498D01*
X154181660Y-105755000D01*
X154110340Y-105755000D01*
X154074787Y-105751498D01*
X154003679Y-105744495D01*
X153866828Y-105702981D01*
X153866825Y-105702980D01*
X153740706Y-105635568D01*
X153630157Y-105544843D01*
X153539432Y-105434294D01*
X153472020Y-105308175D01*
X153468023Y-105295000D01*
X153430505Y-105171321D01*
X153416488Y-105029000D01*
X153430505Y-104886679D01*
X153472019Y-104749828D01*
X153472020Y-104749825D01*
X153539432Y-104623706D01*
X153630157Y-104513157D01*
X153740706Y-104422432D01*
X153866825Y-104355020D01*
X153866828Y-104355019D01*
X154003679Y-104313505D01*
X154074787Y-104306502D01*
X154110340Y-104303000D01*
X154181660Y-104303000D01*
X154217213Y-104306502D01*
X154217213Y-104306502D01*
G37*
G36*
X148446442Y-103499518D02*
G01*
X148512627Y-103506037D01*
X148682466Y-103557557D01*
X148838991Y-103641222D01*
X148874729Y-103670552D01*
X148976186Y-103753814D01*
X149059448Y-103855271D01*
X149088778Y-103891009D01*
X149172443Y-104047534D01*
X149223963Y-104217373D01*
X149241359Y-104394000D01*
X149223963Y-104570627D01*
X149172443Y-104740466D01*
X149172442Y-104740468D01*
X149167439Y-104749828D01*
X149088778Y-104896991D01*
X149059448Y-104932729D01*
X148976186Y-105034186D01*
X148874729Y-105117448D01*
X148838991Y-105146778D01*
X148682466Y-105230443D01*
X148512627Y-105281963D01*
X148446443Y-105288481D01*
X148380260Y-105295000D01*
X148291740Y-105295000D01*
X148225558Y-105288482D01*
X148159373Y-105281963D01*
X147989534Y-105230443D01*
X147833009Y-105146778D01*
X147797271Y-105117448D01*
X147695814Y-105034186D01*
X147612552Y-104932729D01*
X147583222Y-104896991D01*
X147504561Y-104749828D01*
X147499558Y-104740468D01*
X147499557Y-104740466D01*
X147448037Y-104570627D01*
X147430641Y-104394000D01*
X147448037Y-104217373D01*
X147499557Y-104047534D01*
X147583222Y-103891009D01*
X147612552Y-103855271D01*
X147695814Y-103753814D01*
X147797271Y-103670552D01*
X147833009Y-103641222D01*
X147989534Y-103557557D01*
X148159373Y-103506037D01*
X148225557Y-103499519D01*
X148291740Y-103493000D01*
X148380260Y-103493000D01*
X148446442Y-103499518D01*
X148446442Y-103499518D01*
G37*
G36*
X145906442Y-103499518D02*
G01*
X145972627Y-103506037D01*
X146142466Y-103557557D01*
X146298991Y-103641222D01*
X146334729Y-103670552D01*
X146436186Y-103753814D01*
X146519448Y-103855271D01*
X146548778Y-103891009D01*
X146632443Y-104047534D01*
X146683963Y-104217373D01*
X146701359Y-104394000D01*
X146683963Y-104570627D01*
X146632443Y-104740466D01*
X146632442Y-104740468D01*
X146627439Y-104749828D01*
X146548778Y-104896991D01*
X146519448Y-104932729D01*
X146436186Y-105034186D01*
X146334729Y-105117448D01*
X146298991Y-105146778D01*
X146142466Y-105230443D01*
X145972627Y-105281963D01*
X145906443Y-105288481D01*
X145840260Y-105295000D01*
X145751740Y-105295000D01*
X145685558Y-105288482D01*
X145619373Y-105281963D01*
X145449534Y-105230443D01*
X145293009Y-105146778D01*
X145257271Y-105117448D01*
X145155814Y-105034186D01*
X145072552Y-104932729D01*
X145043222Y-104896991D01*
X144964561Y-104749828D01*
X144959558Y-104740468D01*
X144959557Y-104740466D01*
X144908037Y-104570627D01*
X144890641Y-104394000D01*
X144908037Y-104217373D01*
X144959557Y-104047534D01*
X145043222Y-103891009D01*
X145072552Y-103855271D01*
X145155814Y-103753814D01*
X145257271Y-103670552D01*
X145293009Y-103641222D01*
X145449534Y-103557557D01*
X145619373Y-103506037D01*
X145685557Y-103499519D01*
X145751740Y-103493000D01*
X145840260Y-103493000D01*
X145906442Y-103499518D01*
X145906442Y-103499518D01*
G37*
G36*
X154217213Y-102306502D02*
G01*
X154288321Y-102313505D01*
X154425172Y-102355019D01*
X154425175Y-102355020D01*
X154551294Y-102422432D01*
X154661843Y-102513157D01*
X154752568Y-102623706D01*
X154819980Y-102749825D01*
X154819981Y-102749828D01*
X154861495Y-102886679D01*
X154875512Y-103029000D01*
X154861495Y-103171321D01*
X154819981Y-103308172D01*
X154819980Y-103308175D01*
X154752568Y-103434294D01*
X154661843Y-103544843D01*
X154551294Y-103635568D01*
X154425175Y-103702980D01*
X154425172Y-103702981D01*
X154288321Y-103744495D01*
X154217213Y-103751498D01*
X154181660Y-103755000D01*
X154110340Y-103755000D01*
X154074787Y-103751498D01*
X154003679Y-103744495D01*
X153866828Y-103702981D01*
X153866825Y-103702980D01*
X153740706Y-103635568D01*
X153630157Y-103544843D01*
X153539432Y-103434294D01*
X153472020Y-103308175D01*
X153472019Y-103308172D01*
X153430505Y-103171321D01*
X153416488Y-103029000D01*
X153430505Y-102886679D01*
X153472019Y-102749828D01*
X153472020Y-102749825D01*
X153539432Y-102623706D01*
X153630157Y-102513157D01*
X153740706Y-102422432D01*
X153866825Y-102355020D01*
X153866828Y-102355019D01*
X154003679Y-102313505D01*
X154074787Y-102306502D01*
X154110340Y-102303000D01*
X154181660Y-102303000D01*
X154217213Y-102306502D01*
X154217213Y-102306502D01*
G37*
G36*
X152217213Y-102306502D02*
G01*
X152288321Y-102313505D01*
X152425172Y-102355019D01*
X152425175Y-102355020D01*
X152551294Y-102422432D01*
X152661843Y-102513157D01*
X152752568Y-102623706D01*
X152819980Y-102749825D01*
X152819981Y-102749828D01*
X152861495Y-102886679D01*
X152875512Y-103029000D01*
X152861495Y-103171321D01*
X152819981Y-103308172D01*
X152819980Y-103308175D01*
X152752568Y-103434294D01*
X152661843Y-103544843D01*
X152551294Y-103635568D01*
X152425175Y-103702980D01*
X152425172Y-103702981D01*
X152288321Y-103744495D01*
X152217213Y-103751498D01*
X152181660Y-103755000D01*
X152110340Y-103755000D01*
X152074787Y-103751498D01*
X152003679Y-103744495D01*
X151866828Y-103702981D01*
X151866825Y-103702980D01*
X151740706Y-103635568D01*
X151630157Y-103544843D01*
X151539432Y-103434294D01*
X151472020Y-103308175D01*
X151472019Y-103308172D01*
X151430505Y-103171321D01*
X151416488Y-103029000D01*
X151430505Y-102886679D01*
X151472019Y-102749828D01*
X151472020Y-102749825D01*
X151539432Y-102623706D01*
X151630157Y-102513157D01*
X151740706Y-102422432D01*
X151866825Y-102355020D01*
X151866828Y-102355019D01*
X152003679Y-102313505D01*
X152074787Y-102306502D01*
X152110340Y-102303000D01*
X152181660Y-102303000D01*
X152217213Y-102306502D01*
X152217213Y-102306502D01*
G37*
G36*
X148446443Y-100959519D02*
G01*
X148512627Y-100966037D01*
X148682466Y-101017557D01*
X148838991Y-101101222D01*
X148874729Y-101130552D01*
X148976186Y-101213814D01*
X149053622Y-101308172D01*
X149088778Y-101351009D01*
X149172443Y-101507534D01*
X149223963Y-101677373D01*
X149241359Y-101854000D01*
X149223963Y-102030627D01*
X149172443Y-102200466D01*
X149088778Y-102356991D01*
X149059448Y-102392729D01*
X148976186Y-102494186D01*
X148874729Y-102577448D01*
X148838991Y-102606778D01*
X148682466Y-102690443D01*
X148512627Y-102741963D01*
X148446442Y-102748482D01*
X148380260Y-102755000D01*
X148291740Y-102755000D01*
X148225557Y-102748481D01*
X148159373Y-102741963D01*
X147989534Y-102690443D01*
X147833009Y-102606778D01*
X147797271Y-102577448D01*
X147695814Y-102494186D01*
X147612552Y-102392729D01*
X147583222Y-102356991D01*
X147499557Y-102200466D01*
X147448037Y-102030627D01*
X147430641Y-101854000D01*
X147448037Y-101677373D01*
X147499557Y-101507534D01*
X147583222Y-101351009D01*
X147618378Y-101308172D01*
X147695814Y-101213814D01*
X147797271Y-101130552D01*
X147833009Y-101101222D01*
X147989534Y-101017557D01*
X148159373Y-100966037D01*
X148225558Y-100959518D01*
X148291740Y-100953000D01*
X148380260Y-100953000D01*
X148446443Y-100959519D01*
X148446443Y-100959519D01*
G37*
G36*
X145906443Y-100959519D02*
G01*
X145972627Y-100966037D01*
X146142466Y-101017557D01*
X146298991Y-101101222D01*
X146334729Y-101130552D01*
X146436186Y-101213814D01*
X146513622Y-101308172D01*
X146548778Y-101351009D01*
X146632443Y-101507534D01*
X146683963Y-101677373D01*
X146701359Y-101854000D01*
X146683963Y-102030627D01*
X146632443Y-102200466D01*
X146548778Y-102356991D01*
X146519448Y-102392729D01*
X146436186Y-102494186D01*
X146334729Y-102577448D01*
X146298991Y-102606778D01*
X146142466Y-102690443D01*
X145972627Y-102741963D01*
X145906442Y-102748482D01*
X145840260Y-102755000D01*
X145751740Y-102755000D01*
X145685557Y-102748481D01*
X145619373Y-102741963D01*
X145449534Y-102690443D01*
X145293009Y-102606778D01*
X145257271Y-102577448D01*
X145155814Y-102494186D01*
X145072552Y-102392729D01*
X145043222Y-102356991D01*
X144959557Y-102200466D01*
X144908037Y-102030627D01*
X144890641Y-101854000D01*
X144908037Y-101677373D01*
X144959557Y-101507534D01*
X145043222Y-101351009D01*
X145078378Y-101308172D01*
X145155814Y-101213814D01*
X145257271Y-101130552D01*
X145293009Y-101101222D01*
X145449534Y-101017557D01*
X145619373Y-100966037D01*
X145685558Y-100959518D01*
X145751740Y-100953000D01*
X145840260Y-100953000D01*
X145906443Y-100959519D01*
X145906443Y-100959519D01*
G37*
G36*
X152217213Y-100306502D02*
G01*
X152288321Y-100313505D01*
X152425172Y-100355019D01*
X152425175Y-100355020D01*
X152551294Y-100422432D01*
X152661843Y-100513157D01*
X152752568Y-100623706D01*
X152819980Y-100749825D01*
X152819981Y-100749828D01*
X152861495Y-100886679D01*
X152875512Y-101029000D01*
X152861495Y-101171321D01*
X152848604Y-101213815D01*
X152819980Y-101308175D01*
X152752568Y-101434294D01*
X152661843Y-101544843D01*
X152551294Y-101635568D01*
X152425175Y-101702980D01*
X152425172Y-101702981D01*
X152288321Y-101744495D01*
X152217213Y-101751498D01*
X152181660Y-101755000D01*
X152110340Y-101755000D01*
X152074787Y-101751498D01*
X152003679Y-101744495D01*
X151866828Y-101702981D01*
X151866825Y-101702980D01*
X151740706Y-101635568D01*
X151630157Y-101544843D01*
X151539432Y-101434294D01*
X151472020Y-101308175D01*
X151443396Y-101213815D01*
X151430505Y-101171321D01*
X151416488Y-101029000D01*
X151430505Y-100886679D01*
X151472019Y-100749828D01*
X151472020Y-100749825D01*
X151539432Y-100623706D01*
X151630157Y-100513157D01*
X151740706Y-100422432D01*
X151866825Y-100355020D01*
X151866828Y-100355019D01*
X152003679Y-100313505D01*
X152074787Y-100306502D01*
X152110340Y-100303000D01*
X152181660Y-100303000D01*
X152217213Y-100306502D01*
X152217213Y-100306502D01*
G37*
G36*
X154217213Y-100306502D02*
G01*
X154288321Y-100313505D01*
X154425172Y-100355019D01*
X154425175Y-100355020D01*
X154551294Y-100422432D01*
X154661843Y-100513157D01*
X154752568Y-100623706D01*
X154819980Y-100749825D01*
X154819981Y-100749828D01*
X154861495Y-100886679D01*
X154875512Y-101029000D01*
X154861495Y-101171321D01*
X154848604Y-101213815D01*
X154819980Y-101308175D01*
X154752568Y-101434294D01*
X154661843Y-101544843D01*
X154551294Y-101635568D01*
X154425175Y-101702980D01*
X154425172Y-101702981D01*
X154288321Y-101744495D01*
X154217213Y-101751498D01*
X154181660Y-101755000D01*
X154110340Y-101755000D01*
X154074787Y-101751498D01*
X154003679Y-101744495D01*
X153866828Y-101702981D01*
X153866825Y-101702980D01*
X153740706Y-101635568D01*
X153630157Y-101544843D01*
X153539432Y-101434294D01*
X153472020Y-101308175D01*
X153443396Y-101213815D01*
X153430505Y-101171321D01*
X153416488Y-101029000D01*
X153430505Y-100886679D01*
X153472019Y-100749828D01*
X153472020Y-100749825D01*
X153539432Y-100623706D01*
X153630157Y-100513157D01*
X153740706Y-100422432D01*
X153866825Y-100355020D01*
X153866828Y-100355019D01*
X154003679Y-100313505D01*
X154074787Y-100306502D01*
X154110340Y-100303000D01*
X154181660Y-100303000D01*
X154217213Y-100306502D01*
X154217213Y-100306502D01*
G37*
G36*
X148446443Y-98419519D02*
G01*
X148512627Y-98426037D01*
X148682466Y-98477557D01*
X148838991Y-98561222D01*
X148874729Y-98590552D01*
X148976186Y-98673814D01*
X149038568Y-98749828D01*
X149088778Y-98811009D01*
X149172443Y-98967534D01*
X149223963Y-99137373D01*
X149241359Y-99314000D01*
X149223963Y-99490627D01*
X149172443Y-99660466D01*
X149088778Y-99816991D01*
X149059448Y-99852729D01*
X148976186Y-99954186D01*
X148874729Y-100037448D01*
X148838991Y-100066778D01*
X148682466Y-100150443D01*
X148512627Y-100201963D01*
X148446442Y-100208482D01*
X148380260Y-100215000D01*
X148291740Y-100215000D01*
X148225558Y-100208482D01*
X148159373Y-100201963D01*
X147989534Y-100150443D01*
X147833009Y-100066778D01*
X147797271Y-100037448D01*
X147695814Y-99954186D01*
X147612552Y-99852729D01*
X147583222Y-99816991D01*
X147499557Y-99660466D01*
X147448037Y-99490627D01*
X147430641Y-99314000D01*
X147448037Y-99137373D01*
X147499557Y-98967534D01*
X147583222Y-98811009D01*
X147633432Y-98749828D01*
X147695814Y-98673814D01*
X147797271Y-98590552D01*
X147833009Y-98561222D01*
X147989534Y-98477557D01*
X148159373Y-98426037D01*
X148225557Y-98419519D01*
X148291740Y-98413000D01*
X148380260Y-98413000D01*
X148446443Y-98419519D01*
X148446443Y-98419519D01*
G37*
G36*
X145906443Y-98419519D02*
G01*
X145972627Y-98426037D01*
X146142466Y-98477557D01*
X146298991Y-98561222D01*
X146334729Y-98590552D01*
X146436186Y-98673814D01*
X146498568Y-98749828D01*
X146548778Y-98811009D01*
X146632443Y-98967534D01*
X146683963Y-99137373D01*
X146701359Y-99314000D01*
X146683963Y-99490627D01*
X146632443Y-99660466D01*
X146548778Y-99816991D01*
X146519448Y-99852729D01*
X146436186Y-99954186D01*
X146334729Y-100037448D01*
X146298991Y-100066778D01*
X146142466Y-100150443D01*
X145972627Y-100201963D01*
X145906442Y-100208482D01*
X145840260Y-100215000D01*
X145751740Y-100215000D01*
X145685558Y-100208482D01*
X145619373Y-100201963D01*
X145449534Y-100150443D01*
X145293009Y-100066778D01*
X145257271Y-100037448D01*
X145155814Y-99954186D01*
X145072552Y-99852729D01*
X145043222Y-99816991D01*
X144959557Y-99660466D01*
X144908037Y-99490627D01*
X144890641Y-99314000D01*
X144908037Y-99137373D01*
X144959557Y-98967534D01*
X145043222Y-98811009D01*
X145093432Y-98749828D01*
X145155814Y-98673814D01*
X145257271Y-98590552D01*
X145293009Y-98561222D01*
X145449534Y-98477557D01*
X145619373Y-98426037D01*
X145685557Y-98419519D01*
X145751740Y-98413000D01*
X145840260Y-98413000D01*
X145906443Y-98419519D01*
X145906443Y-98419519D01*
G37*
G36*
X154217213Y-98306502D02*
G01*
X154288321Y-98313505D01*
X154425172Y-98355019D01*
X154425175Y-98355020D01*
X154551294Y-98422432D01*
X154661843Y-98513157D01*
X154752568Y-98623706D01*
X154819980Y-98749825D01*
X154819981Y-98749828D01*
X154861495Y-98886679D01*
X154875512Y-99029000D01*
X154861495Y-99171321D01*
X154819981Y-99308172D01*
X154819980Y-99308175D01*
X154752568Y-99434294D01*
X154661843Y-99544843D01*
X154551294Y-99635568D01*
X154425175Y-99702980D01*
X154425172Y-99702981D01*
X154288321Y-99744495D01*
X154217213Y-99751498D01*
X154181660Y-99755000D01*
X154110340Y-99755000D01*
X154074787Y-99751498D01*
X154003679Y-99744495D01*
X153866828Y-99702981D01*
X153866825Y-99702980D01*
X153740706Y-99635568D01*
X153630157Y-99544843D01*
X153539432Y-99434294D01*
X153472020Y-99308175D01*
X153472019Y-99308172D01*
X153430505Y-99171321D01*
X153416488Y-99029000D01*
X153430505Y-98886679D01*
X153472019Y-98749828D01*
X153472020Y-98749825D01*
X153539432Y-98623706D01*
X153630157Y-98513157D01*
X153740706Y-98422432D01*
X153866825Y-98355020D01*
X153866828Y-98355019D01*
X154003679Y-98313505D01*
X154074787Y-98306502D01*
X154110340Y-98303000D01*
X154181660Y-98303000D01*
X154217213Y-98306502D01*
X154217213Y-98306502D01*
G37*
G36*
X152217213Y-98306502D02*
G01*
X152288321Y-98313505D01*
X152425172Y-98355019D01*
X152425175Y-98355020D01*
X152551294Y-98422432D01*
X152661843Y-98513157D01*
X152752568Y-98623706D01*
X152819980Y-98749825D01*
X152819981Y-98749828D01*
X152861495Y-98886679D01*
X152875512Y-99029000D01*
X152861495Y-99171321D01*
X152819981Y-99308172D01*
X152819980Y-99308175D01*
X152752568Y-99434294D01*
X152661843Y-99544843D01*
X152551294Y-99635568D01*
X152425175Y-99702980D01*
X152425172Y-99702981D01*
X152288321Y-99744495D01*
X152217213Y-99751498D01*
X152181660Y-99755000D01*
X152110340Y-99755000D01*
X152074787Y-99751498D01*
X152003679Y-99744495D01*
X151866828Y-99702981D01*
X151866825Y-99702980D01*
X151740706Y-99635568D01*
X151630157Y-99544843D01*
X151539432Y-99434294D01*
X151472020Y-99308175D01*
X151472019Y-99308172D01*
X151430505Y-99171321D01*
X151416488Y-99029000D01*
X151430505Y-98886679D01*
X151472019Y-98749828D01*
X151472020Y-98749825D01*
X151539432Y-98623706D01*
X151630157Y-98513157D01*
X151740706Y-98422432D01*
X151866825Y-98355020D01*
X151866828Y-98355019D01*
X152003679Y-98313505D01*
X152074787Y-98306502D01*
X152110340Y-98303000D01*
X152181660Y-98303000D01*
X152217213Y-98306502D01*
X152217213Y-98306502D01*
G37*
G36*
X154217213Y-96306502D02*
G01*
X154288321Y-96313505D01*
X154425172Y-96355019D01*
X154425175Y-96355020D01*
X154551294Y-96422432D01*
X154661843Y-96513157D01*
X154752568Y-96623706D01*
X154819980Y-96749825D01*
X154819981Y-96749828D01*
X154861495Y-96886679D01*
X154875512Y-97029000D01*
X154861495Y-97171321D01*
X154829440Y-97276989D01*
X154819980Y-97308175D01*
X154752568Y-97434294D01*
X154661843Y-97544843D01*
X154551294Y-97635568D01*
X154425175Y-97702980D01*
X154425172Y-97702981D01*
X154288321Y-97744495D01*
X154217213Y-97751498D01*
X154181660Y-97755000D01*
X154110340Y-97755000D01*
X154074787Y-97751498D01*
X154003679Y-97744495D01*
X153866828Y-97702981D01*
X153866825Y-97702980D01*
X153740706Y-97635568D01*
X153630157Y-97544843D01*
X153539432Y-97434294D01*
X153472020Y-97308175D01*
X153462560Y-97276989D01*
X153430505Y-97171321D01*
X153416488Y-97029000D01*
X153430505Y-96886679D01*
X153472019Y-96749828D01*
X153472020Y-96749825D01*
X153539432Y-96623706D01*
X153630157Y-96513157D01*
X153740706Y-96422432D01*
X153866825Y-96355020D01*
X153866828Y-96355019D01*
X154003679Y-96313505D01*
X154074787Y-96306502D01*
X154110340Y-96303000D01*
X154181660Y-96303000D01*
X154217213Y-96306502D01*
X154217213Y-96306502D01*
G37*
G36*
X152217213Y-96306502D02*
G01*
X152288321Y-96313505D01*
X152425172Y-96355019D01*
X152425175Y-96355020D01*
X152551294Y-96422432D01*
X152661843Y-96513157D01*
X152752568Y-96623706D01*
X152819980Y-96749825D01*
X152819981Y-96749828D01*
X152861495Y-96886679D01*
X152875512Y-97029000D01*
X152861495Y-97171321D01*
X152829440Y-97276989D01*
X152819980Y-97308175D01*
X152752568Y-97434294D01*
X152661843Y-97544843D01*
X152551294Y-97635568D01*
X152425175Y-97702980D01*
X152425172Y-97702981D01*
X152288321Y-97744495D01*
X152217213Y-97751498D01*
X152181660Y-97755000D01*
X152110340Y-97755000D01*
X152074787Y-97751498D01*
X152003679Y-97744495D01*
X151866828Y-97702981D01*
X151866825Y-97702980D01*
X151740706Y-97635568D01*
X151630157Y-97544843D01*
X151539432Y-97434294D01*
X151472020Y-97308175D01*
X151462560Y-97276989D01*
X151430505Y-97171321D01*
X151416488Y-97029000D01*
X151430505Y-96886679D01*
X151472019Y-96749828D01*
X151472020Y-96749825D01*
X151539432Y-96623706D01*
X151630157Y-96513157D01*
X151740706Y-96422432D01*
X151866825Y-96355020D01*
X151866828Y-96355019D01*
X152003679Y-96313505D01*
X152074787Y-96306502D01*
X152110340Y-96303000D01*
X152181660Y-96303000D01*
X152217213Y-96306502D01*
X152217213Y-96306502D01*
G37*
G36*
X148446442Y-95879518D02*
G01*
X148512627Y-95886037D01*
X148682466Y-95937557D01*
X148838991Y-96021222D01*
X148874729Y-96050552D01*
X148976186Y-96133814D01*
X149059448Y-96235271D01*
X149088778Y-96271009D01*
X149088779Y-96271011D01*
X149169717Y-96422433D01*
X149172443Y-96427534D01*
X149223963Y-96597373D01*
X149241359Y-96774000D01*
X149223963Y-96950627D01*
X149172443Y-97120466D01*
X149088778Y-97276991D01*
X149063188Y-97308172D01*
X148976186Y-97414186D01*
X148874729Y-97497448D01*
X148838991Y-97526778D01*
X148682466Y-97610443D01*
X148512627Y-97661963D01*
X148446443Y-97668481D01*
X148380260Y-97675000D01*
X148291740Y-97675000D01*
X148225557Y-97668481D01*
X148159373Y-97661963D01*
X147989534Y-97610443D01*
X147833009Y-97526778D01*
X147797271Y-97497448D01*
X147695814Y-97414186D01*
X147608812Y-97308172D01*
X147583222Y-97276991D01*
X147499557Y-97120466D01*
X147448037Y-96950627D01*
X147430641Y-96774000D01*
X147448037Y-96597373D01*
X147499557Y-96427534D01*
X147502284Y-96422433D01*
X147583221Y-96271011D01*
X147583222Y-96271009D01*
X147612552Y-96235271D01*
X147695814Y-96133814D01*
X147797271Y-96050552D01*
X147833009Y-96021222D01*
X147989534Y-95937557D01*
X148159373Y-95886037D01*
X148225557Y-95879519D01*
X148291740Y-95873000D01*
X148380260Y-95873000D01*
X148446442Y-95879518D01*
X148446442Y-95879518D01*
G37*
G36*
X145906442Y-95879518D02*
G01*
X145972627Y-95886037D01*
X146142466Y-95937557D01*
X146298991Y-96021222D01*
X146334729Y-96050552D01*
X146436186Y-96133814D01*
X146519448Y-96235271D01*
X146548778Y-96271009D01*
X146548779Y-96271011D01*
X146629717Y-96422433D01*
X146632443Y-96427534D01*
X146683963Y-96597373D01*
X146701359Y-96774000D01*
X146683963Y-96950627D01*
X146632443Y-97120466D01*
X146548778Y-97276991D01*
X146523188Y-97308172D01*
X146436186Y-97414186D01*
X146334729Y-97497448D01*
X146298991Y-97526778D01*
X146142466Y-97610443D01*
X145972627Y-97661963D01*
X145906443Y-97668481D01*
X145840260Y-97675000D01*
X145751740Y-97675000D01*
X145685557Y-97668481D01*
X145619373Y-97661963D01*
X145449534Y-97610443D01*
X145293009Y-97526778D01*
X145257271Y-97497448D01*
X145155814Y-97414186D01*
X145068812Y-97308172D01*
X145043222Y-97276991D01*
X144959557Y-97120466D01*
X144908037Y-96950627D01*
X144890641Y-96774000D01*
X144908037Y-96597373D01*
X144959557Y-96427534D01*
X144962284Y-96422433D01*
X145043221Y-96271011D01*
X145043222Y-96271009D01*
X145072552Y-96235271D01*
X145155814Y-96133814D01*
X145257271Y-96050552D01*
X145293009Y-96021222D01*
X145449534Y-95937557D01*
X145619373Y-95886037D01*
X145685557Y-95879519D01*
X145751740Y-95873000D01*
X145840260Y-95873000D01*
X145906442Y-95879518D01*
X145906442Y-95879518D01*
G37*
G36*
X152217213Y-94306502D02*
G01*
X152288321Y-94313505D01*
X152425172Y-94355019D01*
X152425175Y-94355020D01*
X152551294Y-94422432D01*
X152661843Y-94513157D01*
X152752568Y-94623706D01*
X152819980Y-94749825D01*
X152819981Y-94749828D01*
X152861495Y-94886679D01*
X152875512Y-95029000D01*
X152861495Y-95171321D01*
X152819981Y-95308172D01*
X152819980Y-95308175D01*
X152752568Y-95434294D01*
X152661843Y-95544843D01*
X152551294Y-95635568D01*
X152425175Y-95702980D01*
X152425172Y-95702981D01*
X152288321Y-95744495D01*
X152217213Y-95751498D01*
X152181660Y-95755000D01*
X152110340Y-95755000D01*
X152074787Y-95751498D01*
X152003679Y-95744495D01*
X151866828Y-95702981D01*
X151866825Y-95702980D01*
X151740706Y-95635568D01*
X151630157Y-95544843D01*
X151539432Y-95434294D01*
X151472020Y-95308175D01*
X151472019Y-95308172D01*
X151430505Y-95171321D01*
X151416488Y-95029000D01*
X151430505Y-94886679D01*
X151472019Y-94749828D01*
X151472020Y-94749825D01*
X151539432Y-94623706D01*
X151630157Y-94513157D01*
X151740706Y-94422432D01*
X151866825Y-94355020D01*
X151866828Y-94355019D01*
X152003679Y-94313505D01*
X152074787Y-94306502D01*
X152110340Y-94303000D01*
X152181660Y-94303000D01*
X152217213Y-94306502D01*
X152217213Y-94306502D01*
G37*
G36*
X154217213Y-94306502D02*
G01*
X154288321Y-94313505D01*
X154425172Y-94355019D01*
X154425175Y-94355020D01*
X154551294Y-94422432D01*
X154661843Y-94513157D01*
X154752568Y-94623706D01*
X154819980Y-94749825D01*
X154819981Y-94749828D01*
X154861495Y-94886679D01*
X154875512Y-95029000D01*
X154861495Y-95171321D01*
X154819981Y-95308172D01*
X154819980Y-95308175D01*
X154752568Y-95434294D01*
X154661843Y-95544843D01*
X154551294Y-95635568D01*
X154425175Y-95702980D01*
X154425172Y-95702981D01*
X154288321Y-95744495D01*
X154217213Y-95751498D01*
X154181660Y-95755000D01*
X154110340Y-95755000D01*
X154074787Y-95751498D01*
X154003679Y-95744495D01*
X153866828Y-95702981D01*
X153866825Y-95702980D01*
X153740706Y-95635568D01*
X153630157Y-95544843D01*
X153539432Y-95434294D01*
X153472020Y-95308175D01*
X153472019Y-95308172D01*
X153430505Y-95171321D01*
X153416488Y-95029000D01*
X153430505Y-94886679D01*
X153472019Y-94749828D01*
X153472020Y-94749825D01*
X153539432Y-94623706D01*
X153630157Y-94513157D01*
X153740706Y-94422432D01*
X153866825Y-94355020D01*
X153866828Y-94355019D01*
X154003679Y-94313505D01*
X154074787Y-94306502D01*
X154110340Y-94303000D01*
X154181660Y-94303000D01*
X154217213Y-94306502D01*
X154217213Y-94306502D01*
G37*
G36*
X145906442Y-93339518D02*
G01*
X145972627Y-93346037D01*
X146142466Y-93397557D01*
X146298991Y-93481222D01*
X146334729Y-93510552D01*
X146436186Y-93593814D01*
X146519448Y-93695271D01*
X146548778Y-93731009D01*
X146632443Y-93887534D01*
X146683963Y-94057373D01*
X146701359Y-94234000D01*
X146683963Y-94410627D01*
X146632443Y-94580466D01*
X146548778Y-94736991D01*
X146519448Y-94772729D01*
X146436186Y-94874186D01*
X146334729Y-94957448D01*
X146298991Y-94986778D01*
X146142466Y-95070443D01*
X145972627Y-95121963D01*
X145906442Y-95128482D01*
X145840260Y-95135000D01*
X145751740Y-95135000D01*
X145685558Y-95128482D01*
X145619373Y-95121963D01*
X145449534Y-95070443D01*
X145293009Y-94986778D01*
X145257271Y-94957448D01*
X145155814Y-94874186D01*
X145072552Y-94772729D01*
X145043222Y-94736991D01*
X144959557Y-94580466D01*
X144908037Y-94410627D01*
X144890641Y-94234000D01*
X144908037Y-94057373D01*
X144959557Y-93887534D01*
X145043222Y-93731009D01*
X145072552Y-93695271D01*
X145155814Y-93593814D01*
X145257271Y-93510552D01*
X145293009Y-93481222D01*
X145449534Y-93397557D01*
X145619373Y-93346037D01*
X145685558Y-93339518D01*
X145751740Y-93333000D01*
X145840260Y-93333000D01*
X145906442Y-93339518D01*
X145906442Y-93339518D01*
G37*
G36*
X148446442Y-93339518D02*
G01*
X148512627Y-93346037D01*
X148682466Y-93397557D01*
X148838991Y-93481222D01*
X148874729Y-93510552D01*
X148976186Y-93593814D01*
X149059448Y-93695271D01*
X149088778Y-93731009D01*
X149172443Y-93887534D01*
X149223963Y-94057373D01*
X149241359Y-94234000D01*
X149223963Y-94410627D01*
X149172443Y-94580466D01*
X149088778Y-94736991D01*
X149059448Y-94772729D01*
X148976186Y-94874186D01*
X148874729Y-94957448D01*
X148838991Y-94986778D01*
X148682466Y-95070443D01*
X148512627Y-95121963D01*
X148446442Y-95128482D01*
X148380260Y-95135000D01*
X148291740Y-95135000D01*
X148225558Y-95128482D01*
X148159373Y-95121963D01*
X147989534Y-95070443D01*
X147833009Y-94986778D01*
X147797271Y-94957448D01*
X147695814Y-94874186D01*
X147612552Y-94772729D01*
X147583222Y-94736991D01*
X147499557Y-94580466D01*
X147448037Y-94410627D01*
X147430641Y-94234000D01*
X147448037Y-94057373D01*
X147499557Y-93887534D01*
X147583222Y-93731009D01*
X147612552Y-93695271D01*
X147695814Y-93593814D01*
X147797271Y-93510552D01*
X147833009Y-93481222D01*
X147989534Y-93397557D01*
X148159373Y-93346037D01*
X148225558Y-93339518D01*
X148291740Y-93333000D01*
X148380260Y-93333000D01*
X148446442Y-93339518D01*
X148446442Y-93339518D01*
G37*
G36*
X154217213Y-92306502D02*
G01*
X154288321Y-92313505D01*
X154425172Y-92355019D01*
X154425175Y-92355020D01*
X154551294Y-92422432D01*
X154661843Y-92513157D01*
X154752568Y-92623706D01*
X154819980Y-92749825D01*
X154819981Y-92749828D01*
X154861495Y-92886679D01*
X154875512Y-93029000D01*
X154861495Y-93171321D01*
X154819981Y-93308172D01*
X154819980Y-93308175D01*
X154752568Y-93434294D01*
X154661843Y-93544843D01*
X154551294Y-93635568D01*
X154425175Y-93702980D01*
X154425172Y-93702981D01*
X154288321Y-93744495D01*
X154217213Y-93751498D01*
X154181660Y-93755000D01*
X154110340Y-93755000D01*
X154074787Y-93751498D01*
X154003679Y-93744495D01*
X153866828Y-93702981D01*
X153866825Y-93702980D01*
X153740706Y-93635568D01*
X153630157Y-93544843D01*
X153539432Y-93434294D01*
X153472020Y-93308175D01*
X153472019Y-93308172D01*
X153430505Y-93171321D01*
X153416488Y-93029000D01*
X153430505Y-92886679D01*
X153472019Y-92749828D01*
X153472020Y-92749825D01*
X153539432Y-92623706D01*
X153630157Y-92513157D01*
X153740706Y-92422432D01*
X153866825Y-92355020D01*
X153866828Y-92355019D01*
X154003679Y-92313505D01*
X154074787Y-92306502D01*
X154110340Y-92303000D01*
X154181660Y-92303000D01*
X154217213Y-92306502D01*
X154217213Y-92306502D01*
G37*
G36*
X152217213Y-92306502D02*
G01*
X152288321Y-92313505D01*
X152425172Y-92355019D01*
X152425175Y-92355020D01*
X152551294Y-92422432D01*
X152661843Y-92513157D01*
X152752568Y-92623706D01*
X152819980Y-92749825D01*
X152819981Y-92749828D01*
X152861495Y-92886679D01*
X152875512Y-93029000D01*
X152861495Y-93171321D01*
X152819981Y-93308172D01*
X152819980Y-93308175D01*
X152752568Y-93434294D01*
X152661843Y-93544843D01*
X152551294Y-93635568D01*
X152425175Y-93702980D01*
X152425172Y-93702981D01*
X152288321Y-93744495D01*
X152217213Y-93751498D01*
X152181660Y-93755000D01*
X152110340Y-93755000D01*
X152074787Y-93751498D01*
X152003679Y-93744495D01*
X151866828Y-93702981D01*
X151866825Y-93702980D01*
X151740706Y-93635568D01*
X151630157Y-93544843D01*
X151539432Y-93434294D01*
X151472020Y-93308175D01*
X151472019Y-93308172D01*
X151430505Y-93171321D01*
X151416488Y-93029000D01*
X151430505Y-92886679D01*
X151472019Y-92749828D01*
X151472020Y-92749825D01*
X151539432Y-92623706D01*
X151630157Y-92513157D01*
X151740706Y-92422432D01*
X151866825Y-92355020D01*
X151866828Y-92355019D01*
X152003679Y-92313505D01*
X152074787Y-92306502D01*
X152110340Y-92303000D01*
X152181660Y-92303000D01*
X152217213Y-92306502D01*
X152217213Y-92306502D01*
G37*
G36*
X145906443Y-90799519D02*
G01*
X145972627Y-90806037D01*
X146142466Y-90857557D01*
X146298991Y-90941222D01*
X146334729Y-90970552D01*
X146436186Y-91053814D01*
X146519448Y-91155271D01*
X146548778Y-91191009D01*
X146632443Y-91347534D01*
X146683963Y-91517373D01*
X146701359Y-91694000D01*
X146683963Y-91870627D01*
X146632443Y-92040466D01*
X146548778Y-92196991D01*
X146519448Y-92232729D01*
X146436186Y-92334186D01*
X146334729Y-92417448D01*
X146298991Y-92446778D01*
X146142466Y-92530443D01*
X145972627Y-92581963D01*
X145906443Y-92588481D01*
X145840260Y-92595000D01*
X145751740Y-92595000D01*
X145685557Y-92588481D01*
X145619373Y-92581963D01*
X145449534Y-92530443D01*
X145293009Y-92446778D01*
X145257271Y-92417448D01*
X145155814Y-92334186D01*
X145072552Y-92232729D01*
X145043222Y-92196991D01*
X144959557Y-92040466D01*
X144908037Y-91870627D01*
X144890641Y-91694000D01*
X144908037Y-91517373D01*
X144959557Y-91347534D01*
X145043222Y-91191009D01*
X145072552Y-91155271D01*
X145155814Y-91053814D01*
X145257271Y-90970552D01*
X145293009Y-90941222D01*
X145449534Y-90857557D01*
X145619373Y-90806037D01*
X145685557Y-90799519D01*
X145751740Y-90793000D01*
X145840260Y-90793000D01*
X145906443Y-90799519D01*
X145906443Y-90799519D01*
G37*
G36*
X148446443Y-90799519D02*
G01*
X148512627Y-90806037D01*
X148682466Y-90857557D01*
X148838991Y-90941222D01*
X148874729Y-90970552D01*
X148976186Y-91053814D01*
X149059448Y-91155271D01*
X149088778Y-91191009D01*
X149172443Y-91347534D01*
X149223963Y-91517373D01*
X149241359Y-91694000D01*
X149223963Y-91870627D01*
X149172443Y-92040466D01*
X149088778Y-92196991D01*
X149059448Y-92232729D01*
X148976186Y-92334186D01*
X148874729Y-92417448D01*
X148838991Y-92446778D01*
X148682466Y-92530443D01*
X148512627Y-92581963D01*
X148446443Y-92588481D01*
X148380260Y-92595000D01*
X148291740Y-92595000D01*
X148225557Y-92588481D01*
X148159373Y-92581963D01*
X147989534Y-92530443D01*
X147833009Y-92446778D01*
X147797271Y-92417448D01*
X147695814Y-92334186D01*
X147612552Y-92232729D01*
X147583222Y-92196991D01*
X147499557Y-92040466D01*
X147448037Y-91870627D01*
X147430641Y-91694000D01*
X147448037Y-91517373D01*
X147499557Y-91347534D01*
X147583222Y-91191009D01*
X147612552Y-91155271D01*
X147695814Y-91053814D01*
X147797271Y-90970552D01*
X147833009Y-90941222D01*
X147989534Y-90857557D01*
X148159373Y-90806037D01*
X148225557Y-90799519D01*
X148291740Y-90793000D01*
X148380260Y-90793000D01*
X148446443Y-90799519D01*
X148446443Y-90799519D01*
G37*
M02*
