M48
INCH,TZ
T1C0.0315
T2C0.0394
%
G90
G05
T1
X59900Y-36626
X59900Y-37413
X59900Y-38200
X59900Y-38988
X59900Y-39775
X59900Y-40563
X59900Y-41350
X60687Y-36626
X60687Y-37413
X60687Y-38200
X60687Y-38988
X60687Y-39775
X60687Y-40563
X60687Y-41350
T2
X57400Y-36100
X57400Y-37100
X57400Y-38100
X57400Y-39100
X57400Y-40100
X57400Y-41100
X57400Y-42100
X58400Y-36100
X58400Y-37100
X58400Y-38100
X58400Y-39100
X58400Y-40100
X58400Y-41100
X58400Y-42100
T0
M30
