G04 #@! TF.GenerationSoftware,KiCad,Pcbnew,(5.1.2)-2*
G04 #@! TF.CreationDate,2019-09-11T21:46:37-05:00*
G04 #@! TF.ProjectId,zturn_breakout,7a747572-6e5f-4627-9265-616b6f75742e,rev?*
G04 #@! TF.SameCoordinates,Original*
G04 #@! TF.FileFunction,Legend,Bot*
G04 #@! TF.FilePolarity,Positive*
%FSLAX46Y46*%
G04 Gerber Fmt 4.6, Leading zero omitted, Abs format (unit mm)*
G04 Created by KiCad (PCBNEW (5.1.2)-2) date 2019-09-11 21:46:37*
%MOMM*%
%LPD*%
G04 APERTURE LIST*
%ADD10C,0.120000*%
%ADD11C,0.150000*%
G04 APERTURE END LIST*
D10*
X151146000Y-106029000D02*
X152146000Y-106029000D01*
X151146000Y-105029000D02*
X151146000Y-106029000D01*
X153028114Y-92719000D02*
X153263886Y-92719000D01*
X153028114Y-93339000D02*
X153263886Y-93339000D01*
X155028114Y-92719000D02*
X155586000Y-92719000D01*
X155028114Y-93339000D02*
X155586000Y-93339000D01*
X161406000Y-92719000D02*
X157206000Y-92719000D01*
X161406000Y-93339000D02*
X161406000Y-92719000D01*
X157206000Y-93339000D02*
X161406000Y-93339000D01*
X155586000Y-94029000D02*
X157206000Y-94029000D01*
X153028114Y-94719000D02*
X153263886Y-94719000D01*
X153028114Y-95339000D02*
X153263886Y-95339000D01*
X155028114Y-94719000D02*
X155586000Y-94719000D01*
X155028114Y-95339000D02*
X155586000Y-95339000D01*
X161406000Y-94719000D02*
X157206000Y-94719000D01*
X161406000Y-95339000D02*
X161406000Y-94719000D01*
X157206000Y-95339000D02*
X161406000Y-95339000D01*
X155586000Y-96029000D02*
X157206000Y-96029000D01*
X153028114Y-96719000D02*
X153263886Y-96719000D01*
X153028114Y-97339000D02*
X153263886Y-97339000D01*
X155028114Y-96719000D02*
X155586000Y-96719000D01*
X155028114Y-97339000D02*
X155586000Y-97339000D01*
X161406000Y-96719000D02*
X157206000Y-96719000D01*
X161406000Y-97339000D02*
X161406000Y-96719000D01*
X157206000Y-97339000D02*
X161406000Y-97339000D01*
X155586000Y-98029000D02*
X157206000Y-98029000D01*
X153028114Y-98719000D02*
X153263886Y-98719000D01*
X153028114Y-99339000D02*
X153263886Y-99339000D01*
X155028114Y-98719000D02*
X155586000Y-98719000D01*
X155028114Y-99339000D02*
X155586000Y-99339000D01*
X161406000Y-98719000D02*
X157206000Y-98719000D01*
X161406000Y-99339000D02*
X161406000Y-98719000D01*
X157206000Y-99339000D02*
X161406000Y-99339000D01*
X155586000Y-100029000D02*
X157206000Y-100029000D01*
X153028114Y-100719000D02*
X153263886Y-100719000D01*
X153028114Y-101339000D02*
X153263886Y-101339000D01*
X155028114Y-100719000D02*
X155586000Y-100719000D01*
X155028114Y-101339000D02*
X155586000Y-101339000D01*
X161406000Y-100719000D02*
X157206000Y-100719000D01*
X161406000Y-101339000D02*
X161406000Y-100719000D01*
X157206000Y-101339000D02*
X161406000Y-101339000D01*
X155586000Y-102029000D02*
X157206000Y-102029000D01*
X153028114Y-102719000D02*
X153263886Y-102719000D01*
X153028114Y-103339000D02*
X153263886Y-103339000D01*
X155028114Y-102719000D02*
X155586000Y-102719000D01*
X155028114Y-103339000D02*
X155586000Y-103339000D01*
X161406000Y-102719000D02*
X157206000Y-102719000D01*
X161406000Y-103339000D02*
X161406000Y-102719000D01*
X157206000Y-103339000D02*
X161406000Y-103339000D01*
X155586000Y-104029000D02*
X157206000Y-104029000D01*
X153081000Y-104719000D02*
X153263886Y-104719000D01*
X153081000Y-105339000D02*
X153263886Y-105339000D01*
X155028114Y-104719000D02*
X155586000Y-104719000D01*
X155028114Y-105339000D02*
X155586000Y-105339000D01*
X157206000Y-104799000D02*
X161406000Y-104799000D01*
X157206000Y-104919000D02*
X161406000Y-104919000D01*
X157206000Y-105039000D02*
X161406000Y-105039000D01*
X157206000Y-105159000D02*
X161406000Y-105159000D01*
X157206000Y-105279000D02*
X161406000Y-105279000D01*
X161406000Y-104719000D02*
X157206000Y-104719000D01*
X161406000Y-105339000D02*
X161406000Y-104719000D01*
X157206000Y-105339000D02*
X161406000Y-105339000D01*
X157206000Y-106089000D02*
X155586000Y-106089000D01*
X157206000Y-91969000D02*
X157206000Y-106089000D01*
X155586000Y-91969000D02*
X157206000Y-91969000D01*
X155586000Y-106089000D02*
X155586000Y-91969000D01*
X148336000Y-108264000D02*
X149666000Y-108264000D01*
X149666000Y-108264000D02*
X149666000Y-106934000D01*
X147066000Y-108264000D02*
X147066000Y-105664000D01*
X147066000Y-105664000D02*
X149666000Y-105664000D01*
X149666000Y-105664000D02*
X149666000Y-90364000D01*
X144466000Y-90364000D02*
X149666000Y-90364000D01*
X144466000Y-108264000D02*
X144466000Y-90364000D01*
X144466000Y-108264000D02*
X147066000Y-108264000D01*
D11*
X154511333Y-106513380D02*
X154511333Y-107227666D01*
X154558952Y-107370523D01*
X154654190Y-107465761D01*
X154797047Y-107513380D01*
X154892285Y-107513380D01*
X153606571Y-106846714D02*
X153606571Y-107513380D01*
X153844666Y-106465761D02*
X154082761Y-107180047D01*
X153463714Y-107180047D01*
X150955333Y-107656380D02*
X150955333Y-108370666D01*
X151002952Y-108513523D01*
X151098190Y-108608761D01*
X151241047Y-108656380D01*
X151336285Y-108656380D01*
X150526761Y-107751619D02*
X150479142Y-107704000D01*
X150383904Y-107656380D01*
X150145809Y-107656380D01*
X150050571Y-107704000D01*
X150002952Y-107751619D01*
X149955333Y-107846857D01*
X149955333Y-107942095D01*
X150002952Y-108084952D01*
X150574380Y-108656380D01*
X149955333Y-108656380D01*
M02*
